RobotoSerifTextWide-SuperWidth1400.ufo
<glyph name="asterisk" format="2">
  <advance width="595.04"/>
  <unicode hex="002A"/>
  <outline>
    <contour>
      <point x="122.44" y="355.416" type="line"/>
      <point x="180.62" y="382.92"/>
      <point x="211.48000000000002" y="425.728"/>
      <point x="319.76" y="479.056" type="curve"/>
      <point x="275.74" y="538.344" type="line"/>
      <point x="163.92000000000002" y="485.352"/>
      <point x="104.74" y="488.016"/>
      <point x="47.56" y="458.67999999999995" type="curve"/>
    </contour>
    <contour>
      <point x="275.74" y="479.056" type="curve"/>
      <point x="319.76" y="538.344" type="line"/>
      <point x="211.48000000000002" y="590.84"/>
      <point x="180.62" y="633.984"/>
      <point x="122.44" y="661.152" type="curve"/>
      <point x="47.56" y="557.888" type="line"/>
      <point x="104.74" y="528.72"/>
      <point x="163.92000000000002" y="531.384"/>
    </contour>
    <contour>
      <point x="221.09999999999997" y="306.736" type="curve"/>
      <point x="373.4" y="306.736" type="line"/>
      <point x="373.4" y="362.072"/>
      <point x="342.54" y="403.72"/>
      <point x="342.54" y="508.368" type="curve"/>
      <point x="251.95999999999998" y="508.368" type="line"/>
      <point x="251.95999999999998" y="403.72"/>
      <point x="221.09999999999997" y="362.072"/>
    </contour>
    <contour>
      <point x="251.95999999999998" y="508.368" type="curve"/>
      <point x="342.54" y="508.368" type="line"/>
      <point x="342.54" y="613.3520000000001"/>
      <point x="373.4" y="654.664"/>
      <point x="373.4" y="710.0" type="curve"/>
      <point x="221.09999999999997" y="710.0" type="line"/>
      <point x="221.09999999999997" y="654.664"/>
      <point x="251.95999999999998" y="613.3520000000001"/>
    </contour>
    <contour>
      <point x="472.06000000000006" y="355.416" type="curve"/>
      <point x="546.94" y="458.67999999999995" type="line"/>
      <point x="489.7600000000001" y="488.016"/>
      <point x="430.58000000000004" y="485.352"/>
      <point x="319.76" y="538.344" type="curve"/>
      <point x="275.74" y="479.056" type="line"/>
      <point x="383.02" y="425.728"/>
      <point x="413.88" y="382.92"/>
    </contour>
    <contour>
      <point x="319.76" y="479.056" type="line"/>
      <point x="430.58000000000004" y="531.384"/>
      <point x="489.76000000000005" y="528.72"/>
      <point x="546.94" y="557.888" type="curve"/>
      <point x="472.06000000000006" y="661.152" type="line"/>
      <point x="413.88" y="633.984"/>
      <point x="383.02" y="590.84"/>
      <point x="275.74" y="538.344" type="curve"/>
    </contour>
  </outline>
</glyph>
<glyph name="zero" format="2">
  <advance width="665.8399999999999"/>
  <unicode hex="0030"/>
  <outline>
    <contour>
      <point x="332.91999999999996" y="-11.0" type="curve" smooth="yes"/>
      <point x="519.7271794878" y="-11.0"/>
      <point x="651.6800000000001" y="108.68"/>
      <point x="651.6800000000001" y="304.0" type="curve" smooth="yes"/>
      <point x="651.6800000000001" y="499.32000000000005"/>
      <point x="519.0991176472401" y="619.0"/>
      <point x="332.91999999999996" y="619.0" type="curve" smooth="yes"/>
      <point x="146.74088235276002" y="619.0"/>
      <point x="14.160000000000004" y="499.32000000000005"/>
      <point x="14.160000000000004" y="304.0" type="curve" smooth="yes"/>
      <point x="14.160000000000004" y="108.68"/>
      <point x="146.11282051219996" y="-11.0"/>
    </contour>
    <contour>
      <point x="332.91999999999996" y="77.95200000000001" type="curve" smooth="yes"/>
      <point x="296.904" y="77.95200000000001"/>
      <point x="287.90000000000003" y="124.70400000000001"/>
      <point x="287.90000000000003" y="304.0" type="curve" smooth="yes"/>
      <point x="287.90000000000003" y="483.296"/>
      <point x="296.904" y="530.2159999999999"/>
      <point x="332.91999999999996" y="530.2159999999999" type="curve" smooth="yes"/>
      <point x="368.936" y="530.2159999999999"/>
      <point x="377.94" y="483.296"/>
      <point x="377.94" y="304.0" type="curve" smooth="yes"/>
      <point x="377.94" y="124.536"/>
      <point x="368.9359999999999" y="77.95200000000001"/>
    </contour>
  </outline>
</glyph>
<glyph name="A" format="2">
  <advance width="880"/>
  <unicode hex="0041"/>
  <anchor x="414.88" y="721.0" name="top"/>
  <anchor x="657.7600000000001" y="0.0" name="right"/>
  <anchor x="414.88" y="0.0" name="bottom"/>
  <outline>
    <contour>
      <point x="182.15999999999997" y="309.152" type="line"/>
      <point x="182.16" y="224.032" type="line"/>
      <point x="489.76" y="224.032" type="line"/>
      <point x="489.76" y="309.152" type="line"/>
    </contour>
    <contour>
      <point x="301.06" y="642.048" type="line"/>
      <point x="498.3800000000001" y="86.11999999999999" type="line"/>
      <point x="498.3800000000001" y="79.11999999999999"/>
      <point x="469.5199999999999" y="76.11999999999999"/>
      <point x="441.2" y="76.11999999999999" type="curve" smooth="yes"/>
      <point x="423.49999999999994" y="76.11999999999999" type="line"/>
      <point x="423.49999999999994" y="0.0" type="line"/>
      <point x="868.2399999999999" y="0.0" type="line"/>
      <point x="868.2399999999999" y="76.11999999999999" type="line"/>
      <point x="863.1600000000001" y="76.11999999999999" type="line"/>
      <point x="835.8399999999999" y="76.11999999999999"/>
      <point x="819.14" y="81.448"/>
      <point x="811.0600000000002" y="104.11999999999999" type="curve" smooth="yes"/>
      <point x="584.8800000000001" y="710.0" type="line"/>
      <point x="288.9" y="710.0" type="line"/>
      <point x="68.80000000000001" y="119.11999999999999" type="line" smooth="yes"/>
      <point x="57.18" y="85.448"/>
      <point x="44.02" y="76.11999999999999"/>
      <point x="17.7" y="76.11999999999999" type="curve"/>
      <point x="12.16" y="76.11999999999999" type="line"/>
      <point x="12.16" y="0.0" type="line"/>
      <point x="248.42000000000002" y="0.0" type="line"/>
      <point x="248.42000000000002" y="76.11999999999999" type="line"/>
      <point x="234.25999999999996" y="76.11999999999999" type="line" smooth="yes"/>
      <point x="205.94" y="76.11999999999999"/>
      <point x="178.07999999999998" y="83.11999999999999"/>
      <point x="178.07999999999998" y="94.11999999999999" type="curve"/>
      <point x="353.1600000000001" y="584.592" type="line"/>
    </contour>
  </outline>
</glyph>
<glyph name="asciicircum" format="2">
  <advance width="597.04"/>
  <unicode hex="005E"/>
  <outline>
    <contour>
      <point x="216.55999999999995" y="352.352" type="line"/>
      <point x="346.08000000000004" y="685.0" type="line"/>
      <point x="349.61999999999995" y="710.0" type="line"/>
      <point x="189.24000000000004" y="710.0" type="line"/>
      <point x="17.700000000000003" y="352.352" type="line"/>
    </contour>
    <contour>
      <point x="375.94" y="352.352" type="line"/>
      <point x="578.8000000000001" y="352.352" type="line"/>
      <point x="407.79999999999995" y="710.0" type="line"/>
      <point x="243.87999999999997" y="710.0" type="line"/>
      <point x="244.87999999999997" y="686.0" type="line"/>
    </contour>
  </outline>
</glyph>
<glyph name="h" format="2">
  <advance width="812"/>
  <unicode hex="0068"/>
  <anchor x="403.2600000000001" y="734.2" name="top"/>
  <anchor x="391.1" y="0.0" name="bottom"/>
  <outline>
    <contour>
      <point x="803.98" y="0.0" type="line"/>
      <point x="803.98" y="70.792" type="line"/>
      <point x="801.4399999999999" y="70.792" type="line" smooth="yes"/>
      <point x="780.2" y="70.792"/>
      <point x="763.5" y="76.96000000000001"/>
      <point x="763.5" y="98.47200000000001" type="curve" smooth="yes"/>
      <point x="763.5" y="345.352" type="line" smooth="yes"/>
      <point x="763.5" y="461.344"/>
      <point x="680.0" y="522.992"/>
      <point x="553.0200000000002" y="522.992" type="curve" smooth="yes"/>
      <point x="442.2" y="522.992"/>
      <point x="354.1600000000001" y="473.67999999999995"/>
      <point x="322.29999999999995" y="394.856" type="curve"/>
      <point x="322.29999999999995" y="286.92" type="line"/>
      <point x="355.7" y="368.408"/>
      <point x="386.55999999999995" y="408.408"/>
      <point x="430.58000000000004" y="408.408" type="curve" smooth="yes"/>
      <point x="458.9" y="408.408"/>
      <point x="472.05999999999995" y="389.384"/>
      <point x="472.05999999999995" y="350.992" type="curve" smooth="yes"/>
      <point x="472.05999999999995" y="79.12799999999999" type="line" smooth="yes"/>
      <point x="472.05999999999995" y="72.96000000000002"/>
      <point x="451.82" y="70.792"/>
      <point x="437.6600000000001" y="70.792" type="curve" smooth="yes"/>
      <point x="436.12" y="70.792" type="line"/>
      <point x="436.12" y="0.0" type="line"/>
    </contour>
    <contour>
      <point x="350.61999999999995" y="735.0" type="line"/>
      <point x="19.240000000000002" y="735.0" type="line"/>
      <point x="19.240000000000002" y="660.712" type="line"/>
      <point x="27.32" y="658.712" type="line" smooth="yes"/>
      <point x="51.099999999999994" y="652.2080000000001"/>
      <point x="59.72" y="647.704"/>
      <point x="59.72" y="629.52" type="curve" smooth="yes"/>
      <point x="59.72" y="98.47200000000001" type="line" smooth="yes"/>
      <point x="59.72" y="76.96000000000001"/>
      <point x="41.47999999999999" y="70.792"/>
      <point x="20.240000000000002" y="70.792" type="curve" smooth="yes"/>
      <point x="19.240000000000002" y="70.792" type="line"/>
      <point x="19.240000000000002" y="0.0" type="line"/>
      <point x="386.56000000000006" y="0.0" type="line"/>
      <point x="386.56000000000006" y="70.792" type="line"/>
      <point x="383.02" y="70.792" type="line" smooth="yes"/>
      <point x="370.86" y="70.792"/>
      <point x="350.61999999999995" y="72.96000000000002"/>
      <point x="350.61999999999995" y="79.12799999999999" type="curve"/>
    </contour>
  </outline>
</glyph>
<glyph name="p" format="2">
  <advance width="823"/>
  <unicode hex="0070"/>
  <outline>
    <contour>
      <point x="19.24" y="-223.0" type="line"/>
      <point x="417.41999999999996" y="-223.0" type="line"/>
      <point x="417.41999999999996" y="-152.208" type="line"/>
      <point x="414.88000000000005" y="-152.208" type="line" smooth="yes"/>
      <point x="388.56000000000006" y="-152.208"/>
      <point x="350.62" y="-150.04"/>
      <point x="350.62" y="-143.872" type="curve" smooth="yes"/>
      <point x="350.62" y="375.82399999999996" type="line"/>
      <point x="333.91999999999996" y="373.67999999999995" type="line"/>
      <point x="333.91999999999996" y="512.992" type="line"/>
      <point x="19.24" y="512.992" type="line"/>
      <point x="19.24" y="438.704" type="line"/>
      <point x="27.32" y="436.704" type="line" smooth="yes"/>
      <point x="51.10000000000001" y="430.03200000000004"/>
      <point x="59.71999999999999" y="425.69599999999997"/>
      <point x="59.71999999999999" y="407.512" type="curve" smooth="yes"/>
      <point x="59.71999999999999" y="-124.52799999999999" type="line" smooth="yes"/>
      <point x="59.71999999999999" y="-146.04"/>
      <point x="41.48" y="-152.208"/>
      <point x="20.24000000000001" y="-152.208" type="curve"/>
      <point x="19.24" y="-152.208" type="line"/>
    </contour>
    <contour>
      <point x="512.5400000000001" y="-10.0" type="curve" smooth="yes"/>
      <point x="675.46" y="-10.0"/>
      <point x="790.8200000000002" y="103.16"/>
      <point x="790.8200000000002" y="262.82399999999996" type="curve" smooth="yes"/>
      <point x="790.8200000000002" y="418.992"/>
      <point x="686.0800000000002" y="522.992"/>
      <point x="522.1600000000001" y="522.992" type="curve" smooth="yes"/>
      <point x="427.04" y="522.992"/>
      <point x="373.4" y="485.82399999999996"/>
      <point x="322.3" y="413.47999999999996" type="curve"/>
      <point x="322.3" y="296.86400000000003" type="line"/>
      <point x="355.69999999999993" y="370.064"/>
      <point x="379.48" y="417.736"/>
      <point x="427.0399999999999" y="417.736" type="curve" smooth="yes"/>
      <point x="474.59999999999997" y="417.736"/>
      <point x="493.29999999999995" y="363.69599999999997"/>
      <point x="493.29999999999995" y="262.82399999999996" type="curve" smooth="yes"/>
      <point x="493.29999999999995" y="160.12"/>
      <point x="473.0600000000001" y="95.256"/>
      <point x="417.41999999999996" y="95.256" type="curve" smooth="yes"/>
      <point x="364.78000000000003" y="95.256"/>
      <point x="346.08000000000004" y="140.42399999999998"/>
      <point x="322.3" y="201.64" type="curve"/>
      <point x="322.3" y="58.728" type="line"/>
      <point x="367.31999999999994" y="11.352"/>
      <point x="427.04" y="-10.0"/>
    </contour>
  </outline>
</glyph>
<glyph name="cent" format="2">
  <advance width="665.8399999999999"/>
  <unicode hex="00A2"/>
  <outline>
    <contour>
      <point x="317.21999999999997" y="623.0" type="line"/>
      <point x="317.21999999999997" y="471.024" type="line"/>
      <point x="343.54" y="455.69599999999997" type="line"/>
      <point x="343.54" y="53.792" type="line"/>
      <point x="317.21999999999997" y="36.791999999999994" type="line"/>
      <point x="317.21999999999997" y="-126.0" type="line"/>
      <point x="448.2800000000001" y="-126.0" type="line"/>
      <point x="448.2800000000001" y="28.32" type="line"/>
      <point x="421.96000000000004" y="42.984" type="line"/>
      <point x="421.96000000000004" y="462.688" type="line"/>
      <point x="448.2800000000001" y="479.192" type="line"/>
      <point x="448.2800000000001" y="623.0" type="line"/>
    </contour>
    <contour>
      <point x="418.41999999999996" y="73.792" type="curve" smooth="yes"/>
      <point x="330.38" y="73.792"/>
      <point x="280.82" y="121.57084116949528"/>
      <point x="280.82" y="253.824" type="curve" smooth="yes"/>
      <point x="280.82" y="381.6064342856647"/>
      <point x="298.52" y="438.368"/>
      <point x="394.64" y="438.368" type="curve" smooth="yes"/>
      <point x="457.9" y="438.368"/>
      <point x="475.6" y="419.832"/>
      <point x="487.76000000000005" y="403.472" type="curve"/>
      <point x="540.70980963452" y="391.4256551304667"/>
      <point x="567.86345932578" y="434.4061816393103"/>
      <point x="461.44" y="458.13599999999997" type="curve"/>
      <point x="461.44" y="325.672" type="line"/>
      <point x="632.4399999999999" y="325.672" type="line"/>
      <point x="632.4399999999999" y="464.472" type="line"/>
      <point x="601.58" y="484.144"/>
      <point x="530.24" y="522.992"/>
      <point x="377.94" y="522.992" type="curve" smooth="yes"/>
      <point x="169.0" y="522.992"/>
      <point x="23.78000000000001" y="422.30400000000003"/>
      <point x="23.78000000000001" y="253.824" type="curve" smooth="yes"/>
      <point x="23.78000000000001" y="84.68799999999999"/>
      <point x="174.54000000000002" y="-13.328"/>
      <point x="374.4" y="-13.328" type="curve" smooth="yes"/>
      <point x="523.16" y="-13.328"/>
      <point x="595.5" y="48.327999999999996"/>
      <point x="646.6" y="133.632" type="curve"/>
      <point x="558.5600000000002" y="180.288" type="line"/>
      <point x="529.65231918936" y="133.57983635532608"/>
      <point x="487.7600000000001" y="73.792"/>
    </contour>
  </outline>
</glyph>
<glyph name="currency" format="2">
  <advance width="665.8399999999999"/>
  <unicode hex="00A4"/>
  <outline>
    <contour>
      <point x="413.88" y="373.0" type="curve" smooth="yes"/>
      <point x="413.88" y="322.85726330435944"/>
      <point x="383.0199999999999" y="289.92"/>
      <point x="332.91999999999996" y="289.92" type="curve" smooth="yes"/>
      <point x="281.82" y="289.92"/>
      <point x="251.96" y="323.02203721740807"/>
      <point x="251.96" y="373.0" type="curve" smooth="yes"/>
      <point x="251.96" y="422.4596877472132"/>
      <point x="281.82" y="456.24800000000005"/>
      <point x="332.91999999999996" y="456.24800000000005" type="curve" smooth="yes"/>
      <point x="383.0199999999999" y="456.24800000000005"/>
      <point x="413.88" y="422.4596877472132"/>
    </contour>
    <contour>
      <point x="67.8" y="373.0" type="curve" smooth="yes"/>
      <point x="67.8" y="245.00786653844784"/>
      <point x="183.15999999999997" y="153.36"/>
      <point x="332.91999999999996" y="153.36" type="curve" smooth="yes"/>
      <point x="483.68" y="153.36"/>
      <point x="598.04" y="245.00786653844784"/>
      <point x="598.04" y="373.0" type="curve" smooth="yes"/>
      <point x="598.04" y="501.1592424880455"/>
      <point x="483.68" y="592.808"/>
      <point x="332.91999999999996" y="592.808" type="curve" smooth="yes"/>
      <point x="183.15999999999997" y="592.808"/>
      <point x="67.8" y="501.1592424880455"/>
    </contour>
    <contour>
      <point x="9.620000000000001" y="565.528" type="line"/>
      <point x="140.14000000000001" y="456.704" type="line"/>
      <point x="264.12" y="538.976" type="line"/>
      <point x="124.97999999999998" y="654.8" type="line"/>
    </contour>
    <contour>
      <point x="656.22" y="565.528" type="line"/>
      <point x="540.86" y="654.8" type="line"/>
      <point x="401.71999999999997" y="538.976" type="line"/>
      <point x="525.7" y="456.704" type="line"/>
    </contour>
    <contour>
      <point x="9.620000000000001" y="180.472" type="line"/>
      <point x="124.97999999999998" y="91.2" type="line"/>
      <point x="264.12" y="207.024" type="line"/>
      <point x="140.14000000000001" y="289.296" type="line"/>
    </contour>
    <contour>
      <point x="656.22" y="180.472" type="line"/>
      <point x="525.7" y="289.296" type="line"/>
      <point x="401.71999999999997" y="207.024" type="line"/>
      <point x="540.86" y="91.2" type="line"/>
    </contour>
  </outline>
</glyph>
<glyph name="Eth" format="2">
  <advance width="978.5200000000002"/>
  <unicode hex="00D0"/>
  <outline>
    <contour>
      <point x="26.319999999999993" y="400.96799999999996" type="line"/>
      <point x="512.54" y="400.96799999999996" type="line"/>
      <point x="512.54" y="309.03200000000004" type="line"/>
      <point x="26.319999999999993" y="309.03200000000004" type="line"/>
    </contour>
    <component base="D" xOffset="50.220000000000006"/>
  </outline>
</glyph>
<glyph name="multiply" format="2">
  <advance width="665.8399999999999"/>
  <unicode hex="00D7"/>
  <outline>
    <contour>
      <point x="170.0" y="558.128" type="line"/>
      <point x="61.720000000000006" y="474.52000000000004" type="line"/>
      <point x="483.68000000000006" y="122.03999999999999" type="line"/>
      <point x="591.9600000000002" y="205.648" type="line"/>
    </contour>
    <contour>
      <point x="483.68000000000006" y="558.128" type="line"/>
      <point x="61.72" y="205.648" type="line"/>
      <point x="170.0" y="122.03999999999999" type="line"/>
      <point x="591.96" y="474.52000000000004" type="line"/>
    </contour>
  </outline>
</glyph>
<glyph name="Eng" format="2">
  <advance width="891.48"/>
  <unicode hex="014A"/>
  <outline>
    <contour>
      <point x="679.0" y="91.232" type="line"/>
      <point x="679.0" y="-6.007999999999999" type="line" smooth="yes"/>
      <point x="679.0" y="-86.368"/>
      <point x="637.52" y="-113.88799999999999"/>
      <point x="581.3399999999999" y="-113.88799999999999" type="curve" smooth="yes"/>
      <point x="529.24" y="-113.88799999999999"/>
      <point x="485.2199999999999" y="-99.39999999999999"/>
      <point x="463.44000000000005" y="-92.568" type="curve"/>
      <point x="463.44000000000005" y="-194.176" type="line"/>
      <point x="500.38000000000005" y="-206.83200000000002"/>
      <point x="546.94" y="-212.0"/>
      <point x="590.96" y="-212.0" type="curve" smooth="yes"/>
      <point x="727.5600000000001" y="-212.0"/>
      <point x="802.4399999999999" y="-140.032"/>
      <point x="802.4399999999999" y="-4.344000000000001" type="curve" smooth="yes"/>
      <point x="802.4399999999999" y="597.0400000000001" type="line" smooth="yes"/>
      <point x="802.4399999999999" y="626.0400000000001"/>
      <point x="824.22" y="633.88"/>
      <point x="853.54" y="633.88" type="curve" smooth="yes"/>
      <point x="865.7" y="633.88" type="line"/>
      <point x="865.7" y="710.0" type="line"/>
      <point x="610.2" y="710.0" type="line"/>
      <point x="610.2" y="633.88" type="line"/>
      <point x="624.3600000000001" y="633.88" type="line" smooth="yes"/>
      <point x="653.6800000000001" y="633.88"/>
      <point x="685.0799999999998" y="625.88"/>
      <point x="685.0799999999998" y="618.88" type="curve" smooth="yes"/>
      <point x="685.0799999999998" y="148.23999999999998" type="line"/>
      <point x="750.34" y="286.87199999999996" type="line"/>
      <point x="479.14000000000004" y="710.0" type="line"/>
      <point x="26.319999999999993" y="710.0" type="line"/>
      <point x="26.319999999999993" y="633.88" type="line"/>
      <point x="37.94" y="633.88" type="line" smooth="yes"/>
      <point x="67.8" y="633.88"/>
      <point x="89.03999999999999" y="626.88"/>
      <point x="89.03999999999999" y="597.88" type="curve" smooth="yes"/>
      <point x="89.03999999999999" y="117.11999999999999" type="line" smooth="yes"/>
      <point x="89.03999999999999" y="88.11999999999999"/>
      <point x="67.8" y="76.11999999999999"/>
      <point x="37.94" y="76.11999999999999" type="curve" smooth="yes"/>
      <point x="26.319999999999993" y="76.11999999999999" type="line"/>
      <point x="26.319999999999993" y="0.0" type="line"/>
      <point x="281.82000000000005" y="0.0" type="line"/>
      <point x="281.82000000000005" y="76.11999999999999" type="line"/>
      <point x="267.65999999999997" y="76.11999999999999" type="line" smooth="yes"/>
      <point x="236.8" y="76.11999999999999"/>
      <point x="206.94" y="84.11999999999999"/>
      <point x="206.94" y="91.11999999999999" type="curve" smooth="yes"/>
      <point x="206.94" y="674.0" type="line"/>
      <point x="169.0" y="670.0" type="line"/>
      <point x="709.8600000000001" y="-114.78399999999999" type="line"/>
    </contour>
  </outline>
</glyph>
<glyph name="Tbar" format="2">
  <advance width="901.1000000000001"/>
  <unicode hex="0166"/>
  <outline>
    <contour>
      <point x="122.44" y="356.704" type="line"/>
      <point x="778.6600000000001" y="356.704" type="line"/>
      <point x="778.6600000000001" y="264.768" type="line"/>
      <point x="122.44" y="264.768" type="line"/>
    </contour>
    <component base="T" xOffset="63.17999999999997"/>
  </outline>
</glyph>
<glyph name="oogonek" format="2">
  <advance width="794.3600000000001"/>
  <unicode hex="01EB"/>
  <outline>
    <contour>
      <point x="397.18000000000006" y="78.28" type="curve"/>
      <point x="347.08000000000004" y="78.28"/>
      <point x="324.84000000000003" y="134.488"/>
      <point x="324.84000000000003" y="256.328" type="curve" smooth="yes"/>
      <point x="324.84000000000003" y="377.832"/>
      <point x="347.08000000000004" y="434.37600000000003"/>
      <point x="397.18000000000006" y="434.37600000000003" type="curve" smooth="yes"/>
      <point x="447.28000000000003" y="434.37600000000003"/>
      <point x="469.5199999999999" y="377.832"/>
      <point x="469.5199999999999" y="256.328" type="curve" smooth="yes"/>
      <point x="469.5199999999999" y="134.32"/>
      <point x="447.28000000000003" y="78.28"/>
    </contour>
    <contour>
      <point x="448.28" y="-244.32" type="curve" smooth="yes"/>
      <point x="546.94" y="-244.32"/>
      <point x="602.58" y="-214.504"/>
      <point x="645.5999999999999" y="-170.032" type="curve"/>
      <point x="588.4199999999998" y="-121.05599999999998" type="line"/>
      <point x="576.8" y="-130.56"/>
      <point x="556.5600000000002" y="-149.05599999999998"/>
      <point x="525.7" y="-149.05599999999998" type="curve" smooth="yes"/>
      <point x="498.38000000000005" y="-149.05599999999998"/>
      <point x="481.68000000000006" y="-135.72"/>
      <point x="481.68000000000006" y="-107.71199999999999" type="curve" smooth="yes"/>
      <point x="481.68000000000006" y="-53.848"/>
      <point x="549.48" y="-6.6960000000000015"/>
      <point x="628.9" y="41.352000000000004" type="curve" smooth="yes"/>
      <point x="712.4000000000001" y="87.2"/>
      <point x="767.04" y="158.192"/>
      <point x="767.04" y="256.328" type="curve" smooth="yes"/>
      <point x="767.04" y="414.82399999999996"/>
      <point x="628.9" y="522.992"/>
      <point x="397.18000000000006" y="522.992" type="curve" smooth="yes"/>
      <point x="165.45999999999998" y="522.992"/>
      <point x="27.32" y="414.992"/>
      <point x="27.32" y="256.328" type="curve" smooth="yes"/>
      <point x="27.32" y="97.496"/>
      <point x="165.45999999999998" y="-10.335999999999999"/>
      <point x="397.18000000000006" y="-10.335999999999999" type="curve"/>
      <point x="461.44" y="-10.335999999999999"/>
      <point x="517.08" y="-2.1679999999999993"/>
      <point x="566.1800000000001" y="13.831999999999999" type="curve"/>
      <point x="577.8" y="44.984" type="line"/>
      <point x="374.4" y="-7.023999999999997"/>
      <point x="274.74" y="-60.36"/>
      <point x="274.74" y="-140.008" type="curve" smooth="yes"/>
      <point x="274.74" y="-207.824"/>
      <point x="343.54" y="-244.32"/>
    </contour>
  </outline>
</glyph>
<glyph name="dotlessj" format="2">
  <advance width="387.56000000000006"/>
  <unicode hex="0237"/>
  <anchor x="198.32" y="544.296" name="top"/>
  <outline>
    <contour>
      <point x="55.63999999999999" y="-27.528" type="line" smooth="yes"/>
      <point x="55.63999999999999" y="-117.37599999999999"/>
      <point x="30.86000000000001" y="-146.544"/>
      <point x="-21.240000000000006" y="-146.544" type="curve" smooth="yes"/>
      <point x="-57.18000000000001" y="-146.544"/>
      <point x="-85.5" y="-136.55200000000002"/>
      <point x="-109.28" y="-128.888" type="curve"/>
      <point x="-109.28" y="-221.008" type="line"/>
      <point x="-91.57999999999998" y="-227.83999999999997"/>
      <point x="-33.400000000000006" y="-236.0"/>
      <point x="36.93999999999999" y="-236.0" type="curve" smooth="yes"/>
      <point x="250.96000000000004" y="-236.0"/>
      <point x="347.08000000000004" y="-173.2"/>
      <point x="347.08000000000004" y="-0.9040000000000106" type="curve" smooth="yes"/>
      <point x="347.08000000000004" y="512.992" type="line"/>
      <point x="3.539999999999992" y="512.992" type="line"/>
      <point x="3.539999999999992" y="438.704" type="line"/>
      <point x="12.16" y="436.704" type="line" smooth="yes"/>
      <point x="35.4" y="430.53599999999994"/>
      <point x="55.63999999999999" y="425.69599999999997"/>
      <point x="55.63999999999999" y="407.512" type="curve" smooth="yes"/>
    </contour>
  </outline>
</glyph>
<glyph name="minute" format="2">
  <advance width="307.14"/>
  <unicode hex="2032"/>
  <outline>
    <contour>
      <point x="277.28000000000003" y="710.0" type="line"/>
      <point x="261.58000000000004" y="607.688"/>
      <point x="221.10000000000002" y="578.848"/>
      <point x="198.32" y="446.712" type="curve"/>
      <point x="59.72000000000001" y="446.712" type="line"/>
      <point x="82.96000000000001" y="597.528"/>
      <point x="58.17999999999999" y="630.2"/>
      <point x="75.88000000000001" y="710.0" type="curve"/>
    </contour>
  </outline>
</glyph>
<glyph name="fraction" format="2">
  <advance width="503.91999999999996"/>
  <unicode hex="2044"/>
  <outline>
    <contour>
      <point x="522.1600000000001" y="710.0" type="line"/>
      <point x="-166.45999999999998" y="0.0" type="line"/>
      <point x="-17.69999999999998" y="0.0" type="line"/>
      <point x="670.3800000000001" y="710.0" type="line"/>
    </contour>
  </outline>
</glyph>
<glyph name="dong" format="2">
  <advance width="665.8399999999999"/>
  <unicode hex="20AB"/>
  <outline>
    <contour>
      <point x="285.36" y="250.0" type="curve" smooth="yes"/>
      <point x="285.36" y="353.03999999999996"/>
      <point x="293.42717948714005" y="417.736"/>
      <point x="329.38000000000005" y="417.736" type="curve" smooth="yes"/>
      <point x="361.0505263150601" y="417.736"/>
      <point x="368.32061059306005" y="371.73329453603"/>
      <point x="372.4" y="305.512" type="curve"/>
      <point x="420.9600000000001" y="314.2" type="line"/>
      <point x="403.26309613612" y="455.83325696528567"/>
      <point x="348.61999999999995" y="522.992"/>
      <point x="236.79999999999995" y="522.992" type="curve" smooth="yes"/>
      <point x="102.2" y="522.992"/>
      <point x="17.7" y="418.152"/>
      <point x="17.7" y="250.0" type="curve" smooth="yes"/>
      <point x="17.7" y="85.68"/>
      <point x="96.12" y="-10.168000000000001"/>
      <point x="231.72000000000003" y="-10.168000000000001" type="curve" smooth="yes"/>
      <point x="331.91999999999996" y="-10.168000000000001"/>
      <point x="373.40000000000003" y="47.176"/>
      <point x="417.41999999999996" y="167.84799999999998" type="curve"/>
      <point x="383.02" y="214.808" type="line"/>
      <point x="372.4" y="140.6"/>
      <point x="353.1600000000001" y="95.088"/>
      <point x="325.84000000000003" y="95.088" type="curve" smooth="yes"/>
      <point x="294.98" y="95.088"/>
      <point x="285.36" y="149.29600000000002"/>
    </contour>
    <contour>
      <point x="355.7" y="730.84" type="line"/>
      <point x="355.7" y="100.02400000000002" type="line"/>
      <point x="372.4" y="112.0" type="line"/>
      <point x="372.4" y="0.0" type="line"/>
      <point x="648.14" y="0.0" type="line"/>
      <point x="648.14" y="74.11999999999999" type="line"/>
      <point x="639.5200000000002" y="75.78399999999999" type="line"/>
      <point x="619.28" y="79.944"/>
      <point x="613.7399999999999" y="85.28"/>
      <point x="613.7399999999999" y="103.464" type="curve" smooth="yes"/>
      <point x="613.7399999999999" y="730.84" type="line"/>
    </contour>
    <contour>
      <point x="87.03999999999999" y="-92.22400000000002" type="line"/>
      <point x="87.03999999999999" y="-189.664" type="line"/>
      <point x="606.1199999999999" y="-189.664" type="line"/>
      <point x="606.1199999999999" y="-92.22400000000002" type="line"/>
    </contour>
    <contour>
      <point x="218.55999999999997" y="662.1039999999999" type="line"/>
      <point x="218.55999999999997" y="574.3280000000001" type="line"/>
      <point x="657.7600000000001" y="574.3280000000001" type="line"/>
      <point x="657.7600000000001" y="662.1039999999999" type="line"/>
    </contour>
  </outline>
</glyph>
<glyph name="guarani" format="2">
  <advance width="665.8399999999999"/>
  <unicode hex="20B2"/>
  <outline>
    <contour>
      <point x="462.44" y="362.16" type="line"/>
      <point x="462.44" y="286.03999999999996" type="line"/>
      <point x="462.44000000000005" y="286.03999999999996" type="line" smooth="yes"/>
      <point x="462.44000000000005" y="286.03999999999996"/>
      <point x="462.44000000000005" y="279.03999999999996"/>
      <point x="462.44000000000005" y="250.04" type="curve"/>
      <point x="631.4399999999999" y="253.368" type="line"/>
      <point x="631.4399999999999" y="279.03999999999996"/>
      <point x="639.52" y="286.03999999999996"/>
      <point x="655.2199999999999" y="286.03999999999996" type="curve" smooth="yes"/>
      <point x="659.7600000000001" y="286.03999999999996" type="line"/>
      <point x="659.7600000000001" y="362.16" type="line"/>
    </contour>
    <contour>
      <point x="303.06" y="790.0" type="line"/>
      <point x="303.06" y="662.344" type="line"/>
      <point x="324.84000000000003" y="648.1840000000001" type="line"/>
      <point x="324.84000000000003" y="61.648" type="line"/>
      <point x="303.06" y="39.831999999999994" type="line"/>
      <point x="303.06" y="-120.0" type="line"/>
      <point x="434.12" y="-120.0" type="line"/>
      <point x="434.12" y="39.168000000000006" type="line"/>
      <point x="412.34000000000003" y="63.312" type="line"/>
      <point x="412.34000000000003" y="652.5039999999999" type="line"/>
      <point x="434.12" y="669.6719999999999" type="line"/>
      <point x="434.12" y="790.0" type="line"/>
    </contour>
    <contour>
      <point x="375.94000000000005" y="-6.640000000000001" type="curve"/>
      <point x="499.38000000000005" y="-6.640000000000001"/>
      <point x="588.42" y="36.864"/>
      <point x="631.4399999999999" y="78.70400000000001" type="curve"/>
      <point x="631.4399999999999" y="296.03999999999996" type="line"/>
      <point x="462.44000000000005" y="324.84" type="line"/>
      <point x="462.44000000000005" y="104.504" type="line"/>
      <point x="448.2800000000001" y="91.832"/>
      <point x="420.96" y="77.98399999999998"/>
      <point x="388.5600000000001" y="77.98399999999998" type="curve"/>
      <point x="292.44" y="77.98399999999998"/>
      <point x="255.5" y="174.50400000000002"/>
      <point x="255.5" y="355.0" type="curve" smooth="yes"/>
      <point x="255.5" y="521.344"/>
      <point x="275.74" y="632.016"/>
      <point x="397.18000000000006" y="632.016" type="curve"/>
      <point x="452.81999999999994" y="632.016"/>
      <point x="487.76" y="613.6719999999999"/>
      <point x="512.5400000000001" y="582.448" type="curve"/>
      <point x="561.1" y="586.0"/>
      <point x="577.8" y="631.312"/>
      <point x="475.6" y="625.824" type="curve"/>
      <point x="475.6" y="514.5039999999999" type="line"/>
      <point x="635.98" y="514.5039999999999" type="line"/>
      <point x="635.98" y="657.9200000000001" type="line"/>
      <point x="614.7399999999999" y="679.8159999999999"/>
      <point x="531.24" y="716.6400000000001"/>
      <point x="380.48" y="716.6400000000001" type="curve"/>
      <point x="163.92000000000002" y="716.6400000000001"/>
      <point x="12.159999999999997" y="566.984"/>
      <point x="12.159999999999997" y="355.0" type="curve" smooth="yes"/>
      <point x="12.159999999999997" y="136.51999999999998"/>
      <point x="158.38" y="-6.640000000000001"/>
    </contour>
  </outline>
</glyph>
<glyph name="numero" format="2">
  <advance width="1491.06"/>
  <unicode hex="2116"/>
  <outline>
    <contour>
      <point x="947.6600000000001" y="237.16799999999998" type="line"/>
      <point x="1396.9400000000003" y="237.16799999999998" type="line"/>
      <point x="1396.9400000000003" y="140.56799999999998" type="line"/>
      <point x="947.6600000000001" y="140.56799999999998" type="line"/>
    </contour>
    <component base="N" xOffset="112.32000000000008"/>
    <component base="ordmasculine" xOffset="822.3200000000002"/>
  </outline>
</glyph>
<glyph name="trademark" format="2">
  <advance width="1121.2"/>
  <unicode hex="2122"/>
  <outline>
    <contour>
      <point x="29.86" y="710.0" type="line"/>
      <point x="29.86" y="585.696" type="line"/>
      <point x="102.2" y="585.696" type="line"/>
      <point x="105.74" y="641.1840000000001" type="line" smooth="yes"/>
      <point x="107.27999999999999" y="658.512"/>
      <point x="122.44000000000001" y="664.68"/>
      <point x="162.92000000000002" y="664.68" type="curve" smooth="yes"/>
      <point x="166.45999999999998" y="664.68" type="line"/>
      <point x="166.45999999999998" y="435.352" type="line" smooth="yes"/>
      <point x="166.45999999999998" y="422.352"/>
      <point x="156.84000000000003" y="419.18399999999997"/>
      <point x="143.68000000000004" y="419.18399999999997" type="curve" smooth="yes"/>
      <point x="135.60000000000002" y="419.18399999999997" type="line"/>
      <point x="135.60000000000002" y="373.368" type="line"/>
      <point x="355.69999999999993" y="373.368" type="line"/>
      <point x="355.69999999999993" y="419.18399999999997" type="line"/>
      <point x="347.08000000000004" y="419.18399999999997" type="line" smooth="yes"/>
      <point x="333.91999999999996" y="419.18399999999997"/>
      <point x="324.84000000000003" y="422.352"/>
      <point x="324.84000000000003" y="435.352" type="curve" smooth="yes"/>
      <point x="324.84000000000003" y="664.68" type="line"/>
      <point x="328.38000000000005" y="664.68" type="line" smooth="yes"/>
      <point x="368.31999999999994" y="664.68"/>
      <point x="384.02" y="658.512"/>
      <point x="385.02" y="641.1840000000001" type="curve" smooth="yes"/>
      <point x="390.1" y="585.696" type="line"/>
      <point x="461.44000000000005" y="585.696" type="line"/>
      <point x="461.44000000000005" y="710.0" type="line"/>
    </contour>
    <contour>
      <point x="493.29999999999995" y="373.368" type="line"/>
      <point x="620.8199999999999" y="373.368" type="line"/>
      <point x="620.8199999999999" y="419.18399999999997" type="line"/>
      <point x="617.28" y="419.18399999999997" type="line" smooth="yes"/>
      <point x="605.12" y="419.18399999999997"/>
      <point x="591.96" y="420.52000000000004"/>
      <point x="591.96" y="423.352" type="curve" smooth="yes"/>
      <point x="591.96" y="701.168" type="line"/>
      <point x="578.8" y="700.168" type="line"/>
      <point x="683.54" y="372.368" type="line"/>
      <point x="790.8200000000002" y="372.368" type="line"/>
      <point x="900.0999999999999" y="699.336" type="line"/>
      <point x="886.9399999999998" y="700.168" type="line"/>
      <point x="886.9399999999998" y="423.352" type="line" smooth="yes"/>
      <point x="886.9399999999998" y="420.52000000000004"/>
      <point x="875.3200000000002" y="419.18399999999997"/>
      <point x="863.1600000000001" y="419.18399999999997" type="curve" smooth="yes"/>
      <point x="858.6200000000002" y="419.18399999999997" type="line"/>
      <point x="858.6200000000002" y="373.368" type="line"/>
      <point x="1073.6399999999999" y="373.368" type="line"/>
      <point x="1073.6399999999999" y="419.18399999999997" type="line"/>
      <point x="1069.1" y="419.18399999999997" type="line" smooth="yes"/>
      <point x="1054.4" y="419.18399999999997"/>
      <point x="1045.32" y="422.352"/>
      <point x="1045.32" y="435.352" type="curve" smooth="yes"/>
      <point x="1045.32" y="648.1840000000001" type="line" smooth="yes"/>
      <point x="1045.32" y="662.1840000000001"/>
      <point x="1054.4" y="665.016"/>
      <point x="1069.1" y="665.016" type="curve" smooth="yes"/>
      <point x="1073.6399999999999" y="665.016" type="line"/>
      <point x="1073.6399999999999" y="710.0" type="line"/>
      <point x="828.7600000000002" y="710.0" type="line"/>
      <point x="732.6399999999999" y="415.86400000000003" type="line"/>
      <point x="795.3599999999999" y="475.6" type="line"/>
      <point x="739.7199999999999" y="710.0" type="line"/>
      <point x="493.29999999999995" y="710.0" type="line"/>
      <point x="493.29999999999995" y="665.016" type="line"/>
      <point x="499.38" y="665.016" type="line" smooth="yes"/>
      <point x="512.54" y="665.016"/>
      <point x="522.1600000000001" y="662.1840000000001"/>
      <point x="522.1600000000001" y="648.1840000000001" type="curve" smooth="yes"/>
      <point x="522.1600000000001" y="435.352" type="line" smooth="yes"/>
      <point x="522.1600000000001" y="422.352"/>
      <point x="512.54" y="419.18399999999997"/>
      <point x="499.38" y="419.18399999999997" type="curve"/>
      <point x="493.29999999999995" y="419.18399999999997" type="line"/>
    </contour>
  </outline>
</glyph>
<glyph name="infinity" format="2">
  <advance width="922.8800000000001"/>
  <unicode hex="221E"/>
  <outline>
    <contour>
      <point x="257.04" y="137.36" type="curve" smooth="yes"/>
      <point x="139.14000000000001" y="137.36"/>
      <point x="59.72000000000001" y="221.024"/>
      <point x="59.72000000000001" y="344.67999999999995" type="curve" smooth="yes"/>
      <point x="59.72000000000001" y="469.33599999999996"/>
      <point x="154.84000000000003" y="556.0"/>
      <point x="289.9" y="556.0" type="curve" smooth="yes"/>
      <point x="435.11999999999995" y="556.0"/>
      <point x="500.38000000000005" y="460.008"/>
      <point x="546.9399999999999" y="371.67999999999995" type="curve" smooth="yes"/>
      <point x="584.8800000000001" y="294.32000000000005"/>
      <point x="613.7399999999999" y="248.8"/>
      <point x="679.0" y="248.8" type="curve" smooth="yes"/>
      <point x="740.7200000000001" y="248.8"/>
      <point x="771.5799999999999" y="289.152"/>
      <point x="771.5799999999999" y="351.67999999999995" type="curve" smooth="yes"/>
      <point x="771.5799999999999" y="406.048"/>
      <point x="730.1000000000001" y="446.56"/>
      <point x="657.7600000000001" y="446.56" type="curve" smooth="yes"/>
      <point x="583.8800000000001" y="446.56"/>
      <point x="538.8600000000001" y="409.53599999999994"/>
      <point x="519.62" y="360.67999999999995" type="curve"/>
      <point x="449.2800000000001" y="361.67999999999995" type="line"/>
      <point x="475.6" y="464.17600000000004"/>
      <point x="555.02" y="556.0"/>
      <point x="666.8399999999999" y="556.0" type="curve" smooth="yes"/>
      <point x="783.7399999999999" y="556.0"/>
      <point x="863.1600000000001" y="472.33599999999996"/>
      <point x="863.1600000000001" y="348.67999999999995" type="curve" smooth="yes"/>
      <point x="863.1600000000001" y="224.024"/>
      <point x="769.0399999999998" y="137.36"/>
      <point x="632.4399999999998" y="137.36" type="curve" smooth="yes"/>
      <point x="493.30000000000007" y="137.36"/>
      <point x="421.96" y="228.512"/>
      <point x="374.4" y="331.168" type="curve" smooth="yes"/>
      <point x="345.08000000000004" y="399.53599999999994"/>
      <point x="312.68000000000006" y="444.56"/>
      <point x="249.95999999999998" y="444.56" type="curve" smooth="yes"/>
      <point x="186.7" y="444.56"/>
      <point x="150.76" y="404.208"/>
      <point x="150.76" y="345.84" type="curve" smooth="yes"/>
      <point x="150.76" y="283.152"/>
      <point x="192.78000000000003" y="246.8"/>
      <point x="265.12" y="246.8" type="curve" smooth="yes"/>
      <point x="340.0" y="246.8"/>
      <point x="384.02" y="284.656"/>
      <point x="401.71999999999997" y="332.67999999999995" type="curve"/>
      <point x="472.0600000000001" y="331.67999999999995" type="line"/>
      <point x="447.28000000000003" y="229.184"/>
      <point x="369.86" y="137.36"/>
    </contour>
  </outline>
</glyph>
<glyph name="uni25B5" format="2">
  <advance width="991.6800000000001"/>
  <unicode hex="25B5"/>
  <outline>
    <contour>
      <point x="23.780000000000005" y="0.0" type="line"/>
      <point x="967.8999999999999" y="0.0" type="line"/>
      <point x="495.84000000000003" y="715.0" type="line"/>
    </contour>
    <contour>
      <point x="135.60000000000002" y="63.0" type="line"/>
      <point x="145.22000000000003" y="44.0" type="line"/>
      <point x="502.91999999999996" y="592.0" type="line"/>
      <point x="488.7600000000001" y="592.0" type="line"/>
      <point x="846.46" y="44.0" type="line"/>
      <point x="856.0799999999999" y="63.0" type="line"/>
    </contour>
  </outline>
</glyph>
<glyph name="uni25BE" format="2">
  <advance width="767.04"/>
  <unicode hex="25BE"/>
  <outline>
    <contour>
      <point x="65.26" y="464.0" type="line"/>
      <point x="383.02" y="91.0" type="line"/>
      <point x="701.2399999999999" y="464.0" type="line"/>
    </contour>
  </outline>
</glyph>
<glyph name="uni25BF" format="2">
  <advance width="743.26"/>
  <unicode hex="25BF"/>
  <outline>
    <contour>
      <point x="689.6200000000001" y="464.0" type="line"/>
      <point x="53.639999999999986" y="464.0" type="line"/>
      <point x="370.8600000000001" y="91.0" type="line"/>
    </contour>
    <contour>
      <point x="588.42" y="414.0" type="line"/>
      <point x="580.3399999999999" y="430.0" type="line"/>
      <point x="364.78000000000003" y="175.0" type="line"/>
      <point x="377.94000000000005" y="175.0" type="line"/>
      <point x="162.92000000000002" y="430.0" type="line"/>
      <point x="154.84000000000003" y="414.0" type="line"/>
    </contour>
  </outline>
</glyph>
<glyph name="F.alt" format="2">
  <advance width="741.7200000000001"/>
  <outline>
    <contour>
      <point x="26.319999999999993" y="0.0" type="line"/>
      <point x="485.21999999999997" y="0.0" type="line"/>
      <point x="485.21999999999997" y="76.11999999999999" type="line"/>
      <point x="464.9800000000001" y="76.11999999999999" type="line" smooth="yes"/>
      <point x="435.1199999999999" y="76.11999999999999"/>
      <point x="398.18000000000006" y="77.11999999999999"/>
      <point x="398.18000000000006" y="112.11999999999999" type="curve" smooth="yes"/>
      <point x="398.18000000000006" y="623.544" type="line"/>
      <point x="478.14" y="623.544" type="line" smooth="yes"/>
      <point x="536.3199999999999" y="623.544"/>
      <point x="576.8" y="616.544"/>
      <point x="581.3399999999999" y="580.544" type="curve" smooth="yes"/>
      <point x="588.42" y="517.168" type="line"/>
      <point x="714.4000000000001" y="517.168" type="line"/>
      <point x="714.4000000000001" y="710.0" type="line"/>
      <point x="26.319999999999993" y="710.0" type="line"/>
      <point x="26.319999999999993" y="633.88" type="line"/>
      <point x="37.94" y="633.88" type="line" smooth="yes"/>
      <point x="67.8" y="633.88"/>
      <point x="89.03999999999999" y="626.88"/>
      <point x="89.03999999999999" y="597.88" type="curve" smooth="yes"/>
      <point x="89.03999999999999" y="112.11999999999999" type="line" smooth="yes"/>
      <point x="89.03999999999999" y="83.11999999999999"/>
      <point x="67.8" y="76.11999999999999"/>
      <point x="37.94" y="76.11999999999999" type="curve" smooth="yes"/>
      <point x="26.319999999999993" y="76.11999999999999" type="line"/>
    </contour>
    <contour>
      <point x="315.2199999999999" y="313.352" type="line"/>
      <point x="476.6" y="313.352" type="line" smooth="yes"/>
      <point x="511.0" y="313.352"/>
      <point x="522.1600000000001" y="290.672"/>
      <point x="522.1600000000001" y="264.992" type="curve" smooth="yes"/>
      <point x="522.1600000000001" y="258.992" type="line"/>
      <point x="620.82" y="258.992" type="line"/>
      <point x="620.82" y="451.33599999999996" type="line"/>
      <point x="522.1600000000001" y="451.33599999999996" type="line"/>
      <point x="522.1600000000001" y="445.33599999999996" type="line" smooth="yes"/>
      <point x="522.1600000000001" y="419.488"/>
      <point x="511.0" y="395.976"/>
      <point x="476.6" y="395.976" type="curve" smooth="yes"/>
      <point x="315.2199999999999" y="395.976" type="line"/>
    </contour>
  </outline>
</glyph>
<glyph name="acute.pl" format="2">
  <advance width="594.5"/>
  <anchor x="258.04" y="489.0" name="_top"/>
  <outline>
    <contour>
      <point x="191.24000000000004" y="680.4960000000001" type="curve" smooth="yes"/>
      <point x="187.7" y="585.168" type="line"/>
      <point x="187.7" y="559.344" type="line"/>
      <point x="281.81999999999994" y="559.344" type="line"/>
      <point x="328.38" y="617.56" type="line" smooth="yes"/>
      <point x="380.48" y="671.3520000000001"/>
      <point x="400.71999999999997" y="701.336"/>
      <point x="400.71999999999997" y="732.6479999999999" type="curve" smooth="yes"/>
      <point x="400.71999999999997" y="767.464"/>
      <point x="370.86" y="796.44"/>
      <point x="305.6" y="796.44" type="curve" smooth="yes"/>
      <point x="227.18000000000004" y="796.44"/>
      <point x="193.78" y="753.968"/>
    </contour>
  </outline>
</glyph>
<glyph name="at.uc" format="2">
  <advance width="1094.88"/>
  <outline>
    <contour>
      <point x="557.5600000000001" y="22.11200000000001" type="curve" smooth="yes"/>
      <point x="317.2199999999999" y="22.11200000000001"/>
      <point x="148.76" y="122.31199999999998"/>
      <point x="148.76" y="313.152" type="curve" smooth="yes"/>
      <point x="148.76" y="501.856"/>
      <point x="337.4600000000001" y="648.88"/>
      <point x="597.04" y="648.88" type="curve" smooth="yes"/>
      <point x="828.76" y="648.88"/>
      <point x="946.6600000000001" y="555.344"/>
      <point x="946.6600000000001" y="412.504" type="curve" smooth="yes"/>
      <point x="946.6600000000001" y="280.0042219231837"/>
      <point x="873.7799999999997" y="200.8"/>
      <point x="825.2199999999999" y="200.8" type="curve" smooth="yes"/>
      <point x="801.44" y="200.8"/>
      <point x="800.4399999999999" y="214.31199999999998"/>
      <point x="807.5200000000002" y="250.336" type="curve" smooth="yes"/>
      <point x="866.7" y="541.832" type="line"/>
      <point x="679.0" y="541.832" type="line"/>
      <point x="637.52" y="459.832" type="line"/>
      <point x="625.3600000000001" y="454.832" type="line"/>
      <point x="578.8" y="219.83999999999997" type="line"/>
      <point x="584.88" y="214.83999999999997"/>
      <point x="595.5" y="212.008"/>
      <point x="598.04" y="220.16000000000003" type="curve"/>
      <point x="615.7399999999999" y="164.83999999999997"/>
      <point x="671.9200000000002" y="123.84"/>
      <point x="782.2" y="123.84" type="curve" smooth="yes"/>
      <point x="933.5" y="123.84"/>
      <point x="1071.1" y="230.2079837242217"/>
      <point x="1071.1" y="412.504" type="curve" smooth="yes"/>
      <point x="1071.1" y="604.488"/>
      <point x="896.5600000000002" y="733.0"/>
      <point x="597.04" y="733.0" type="curve" smooth="yes"/>
      <point x="273.2" y="733.0"/>
      <point x="23.78" y="554.4960000000001"/>
      <point x="23.78" y="313.152" type="curve" smooth="yes"/>
      <point x="23.78" y="68.00800000000001"/>
      <point x="253.5" y="-62.008"/>
      <point x="557.5600000000001" y="-62.008" type="curve" smooth="yes"/>
      <point x="696.7" y="-62.008"/>
      <point x="828.7600000000001" y="-34.176"/>
      <point x="911.7200000000003" y="0.9760000000000009" type="curve"/>
      <point x="883.4" y="82.09599999999999" type="line"/>
      <point x="794.3600000000001" y="47.111999999999995"/>
      <point x="686.08" y="22.11200000000001"/>
    </contour>
    <contour>
      <point x="467.5199999999999" y="117.84" type="curve" smooth="yes"/>
      <point x="570.72" y="117.84"/>
      <point x="614.7399999999999" y="182.16799999999998"/>
      <point x="680.0" y="291.81600000000003" type="curve"/>
      <point x="643.0600000000002" y="343.776" type="line"/>
      <point x="590.96" y="250.62400000000002"/>
      <point x="555.02" y="196.792"/>
      <point x="519.62" y="196.792" type="curve" smooth="yes"/>
      <point x="487.7600000000001" y="196.792"/>
      <point x="475.59999999999997" y="226.31199999999998"/>
      <point x="475.59999999999997" y="283.504" type="curve" smooth="yes"/>
      <point x="475.59999999999997" y="373.856"/>
      <point x="511.0" y="468.712"/>
      <point x="569.72" y="468.712" type="curve" smooth="yes"/>
      <point x="607.6600000000001" y="468.712"/>
      <point x="627.9" y="437.544"/>
      <point x="652.6800000000001" y="354.37600000000003" type="curve"/>
      <point x="688.6200000000001" y="401.0" type="line"/>
      <point x="659.76" y="510.0"/>
      <point x="626.3600000000001" y="547.832"/>
      <point x="524.1600000000001" y="547.832" type="curve" smooth="yes"/>
      <point x="357.70000000000005" y="547.832"/>
      <point x="249.95999999999998" y="418.992"/>
      <point x="249.95999999999998" y="297.832" type="curve" smooth="yes"/>
      <point x="249.95999999999998" y="180.672"/>
      <point x="346.08000000000004" y="117.84"/>
    </contour>
  </outline>
</glyph>
<glyph name="blacktriangle" format="2">
  <advance width="681.54"/>
  <outline>
    <contour>
      <point x="154.84000000000003" y="40.0" type="line"/>
      <point x="598.04" y="307.0" type="line"/>
      <point x="154.84000000000003" y="575.0" type="line"/>
    </contour>
  </outline>
</glyph>
<glyph name="breve_hook.uc" format="2">
  <advance width="595.04"/>
  <anchor x="297.52" y="724.0" name="_top"/>
  <outline>
    <contour>
      <point x="148.75999999999996" y="1005.6320000000001" type="line"/>
      <point x="153.29999999999998" y="1047.96"/>
      <point x="196.32" y="1089.112"/>
      <point x="312.68000000000006" y="1089.112" type="curve" smooth="yes"/>
      <point x="415.88" y="1089.112"/>
      <point x="471.06000000000006" y="1059.7839999999999"/>
      <point x="471.06000000000006" y="1011.7919999999999" type="curve" smooth="yes"/>
      <point x="471.06000000000006" y="956.296"/>
      <point x="412.34000000000003" y="936.464"/>
      <point x="324.84000000000003" y="930.8" type="curve"/>
      <point x="359.24" y="955.464" type="line"/>
      <point x="359.24" y="907.9599999999999" type="line"/>
      <point x="247.41999999999996" y="907.9599999999999" type="line"/>
      <point x="247.41999999999996" y="965.9599999999999" type="line"/>
      <point x="308.14" y="968.7919999999999"/>
      <point x="331.9200000000001" y="981.9599999999999"/>
      <point x="331.9200000000001" y="1006.464" type="curve" smooth="yes"/>
      <point x="331.9200000000001" y="1022.136"/>
      <point x="323.3" y="1031.64"/>
      <point x="302.05999999999995" y="1031.64" type="curve" smooth="yes"/>
      <point x="282.81999999999994" y="1031.64"/>
      <point x="271.2" y="1021.968"/>
      <point x="267.65999999999997" y="1005.6320000000001" type="curve"/>
    </contour>
    <contour>
      <point x="297.52" y="758.168" type="curve" smooth="yes"/>
      <point x="185.70000000000002" y="758.168"/>
      <point x="96.12000000000003" y="800.664"/>
      <point x="90.57999999999998" y="899.472" type="curve"/>
      <point x="218.56" y="899.472" type="line"/>
      <point x="223.64" y="860.296"/>
      <point x="251.95999999999998" y="849.128"/>
      <point x="301.05999999999995" y="849.128" type="curve" smooth="yes"/>
      <point x="349.61999999999995" y="849.128"/>
      <point x="376.94" y="860.296"/>
      <point x="381.48" y="899.472" type="curve"/>
      <point x="503.91999999999996" y="899.472" type="line"/>
      <point x="498.38000000000005" y="800.664"/>
      <point x="408.8" y="758.168"/>
    </contour>
  </outline>
</glyph>
<glyph name="breve_tilde" format="2">
  <advance width="595.04"/>
  <anchor x="303.05999999999995" y="524.0" name="_top"/>
  <outline>
    <contour>
      <point x="379.4800000000001" y="764.0" type="curve" smooth="yes"/>
      <point x="464.9800000000001" y="764.0"/>
      <point x="518.62" y="816.152"/>
      <point x="539.8599999999999" y="896.304" type="curve"/>
      <point x="432.58000000000004" y="925.7840000000001" type="line"/>
      <point x="421.96000000000004" y="894.44"/>
      <point x="410.34000000000003" y="878.592"/>
      <point x="380.48" y="878.592" type="curve" smooth="yes"/>
      <point x="333.91999999999996" y="878.592"/>
      <point x="303.05999999999995" y="923.616"/>
      <point x="214.01999999999995" y="923.616" type="curve" smooth="yes"/>
      <point x="117.9" y="923.616"/>
      <point x="74.88000000000002" y="874.464"/>
      <point x="55.64" y="791.976" type="curve"/>
      <point x="162.92000000000002" y="764.3280000000001" type="line"/>
      <point x="171.0" y="796.176"/>
      <point x="183.15999999999997" y="810.856"/>
      <point x="211.48000000000002" y="810.856" type="curve" smooth="yes"/>
      <point x="254.5" y="810.856"/>
      <point x="279.28000000000003" y="764.0"/>
    </contour>
    <contour>
      <point x="297.52" y="560.032" type="curve" smooth="yes"/>
      <point x="171.0" y="560.032"/>
      <point x="84.5" y="620.344"/>
      <point x="88.04000000000002" y="724.992" type="curve"/>
      <point x="215.02" y="724.992" type="line"/>
      <point x="221.1" y="684.472"/>
      <point x="254.5" y="673.9599999999999"/>
      <point x="301.06" y="673.9599999999999" type="curve" smooth="yes"/>
      <point x="347.08000000000004" y="673.9599999999999"/>
      <point x="379.4800000000001" y="684.472"/>
      <point x="385.02" y="724.992" type="curve"/>
      <point x="506.4600000000001" y="724.992" type="line"/>
      <point x="510.0" y="620.344"/>
      <point x="421.96000000000004" y="560.032"/>
    </contour>
  </outline>
</glyph>
<glyph name="breve_tilde.uc" format="2">
  <advance width="594.5"/>
  <anchor x="335.46" y="694.0" name="_top"/>
  <outline>
    <contour>
      <point x="299.5199999999999" y="758.168" type="curve" smooth="yes"/>
      <point x="187.7" y="758.168"/>
      <point x="98.66000000000001" y="805.824"/>
      <point x="92.57999999999998" y="905.456" type="curve"/>
      <point x="221.10000000000002" y="905.456" type="line"/>
      <point x="225.64000000000004" y="866.952"/>
      <point x="254.50000000000003" y="855.952"/>
      <point x="303.05999999999995" y="855.952" type="curve" smooth="yes"/>
      <point x="352.15999999999997" y="855.952"/>
      <point x="379.48" y="866.952"/>
      <point x="384.02" y="905.456" type="curve"/>
      <point x="506.4599999999999" y="905.456" type="line"/>
      <point x="500.38000000000005" y="805.824"/>
      <point x="411.34000000000003" y="758.168"/>
    </contour>
    <contour>
      <point x="374.4" y="932.984" type="curve" smooth="yes"/>
      <point x="459.90000000000003" y="932.984"/>
      <point x="516.08" y="981.464"/>
      <point x="536.3199999999999" y="1058.104" type="curve"/>
      <point x="428.03999999999996" y="1087.9199999999998" type="line"/>
      <point x="418.41999999999996" y="1058.9199999999998"/>
      <point x="404.2600000000001" y="1043.576"/>
      <point x="377.94000000000005" y="1043.576" type="curve" smooth="yes"/>
      <point x="335.46000000000004" y="1043.576"/>
      <point x="309.14000000000004" y="1086.248"/>
      <point x="222.1" y="1086.248" type="curve" smooth="yes"/>
      <point x="130.52" y="1086.248"/>
      <point x="81.96000000000001" y="1039.768"/>
      <point x="64.26" y="961.7919999999999" type="curve"/>
      <point x="172.54000000000002" y="933.808" type="line"/>
      <point x="180.62" y="963.312"/>
      <point x="193.77999999999997" y="977.488"/>
      <point x="218.55999999999997" y="977.488" type="curve" smooth="yes"/>
      <point x="254.5" y="977.488"/>
      <point x="281.81999999999994" y="932.984"/>
    </contour>
  </outline>
</glyph>
<glyph name="brokenbar.uc" format="2">
  <advance width="356.1600000000001"/>
  <outline>
    <contour>
      <point x="267.65999999999997" y="415.016" type="line"/>
      <point x="267.65999999999997" y="741.68" type="line"/>
      <point x="89.03999999999998" y="741.68" type="line"/>
      <point x="89.03999999999998" y="415.016" type="line"/>
    </contour>
    <contour>
      <point x="89.03999999999998" y="291.656" type="line"/>
      <point x="89.03999999999998" y="-35.007999999999996" type="line"/>
      <point x="267.65999999999997" y="-35.007999999999996" type="line"/>
      <point x="267.65999999999997" y="291.656" type="line"/>
    </contour>
  </outline>
</glyph>
<glyph name="cedi.proportional" format="2">
  <advance width="875.3199999999999"/>
  <outline>
    <contour>
      <point x="488.7600000000001" y="716.6400000000001" type="curve" smooth="yes"/>
      <point x="222.10000000000002" y="716.6400000000001"/>
      <point x="37.94" y="571.976"/>
      <point x="37.94" y="355.0" type="curve" smooth="yes"/>
      <point x="37.94" y="139.184"/>
      <point x="218.55999999999997" y="-6.640000000000001"/>
      <point x="476.6" y="-6.640000000000001" type="curve" smooth="yes"/>
      <point x="690.6200000000002" y="-6.640000000000001"/>
      <point x="798.9000000000001" y="92.016"/>
      <point x="832.3" y="235.656" type="curve"/>
      <point x="732.6399999999999" y="268.984" type="line"/>
      <point x="708.8600000000001" y="157.488"/>
      <point x="632.4399999999999" y="82.816"/>
      <point x="520.62" y="82.816" type="curve" smooth="yes"/>
      <point x="375.94000000000005" y="82.816"/>
      <point x="324.8400000000001" y="182.336"/>
      <point x="324.8400000000001" y="355.0" type="curve" smooth="yes"/>
      <point x="324.8400000000001" y="519.848"/>
      <point x="361.24" y="628.024"/>
      <point x="507.4600000000001" y="628.024" type="curve" smooth="yes"/>
      <point x="604.1199999999999" y="628.024"/>
      <point x="651.6800000000001" y="590.176"/>
      <point x="672.92" y="543.008" type="curve"/>
      <point x="763.5" y="546.384"/>
      <point x="673.92" y="622.48"/>
      <point x="613.7399999999999" y="631.808" type="curve"/>
      <point x="613.7399999999999" y="494.992" type="line"/>
      <point x="815.5999999999999" y="494.992" type="line"/>
      <point x="815.5999999999999" y="637.8" type="line"/>
      <point x="792.8199999999999" y="656.488"/>
      <point x="693.1600000000001" y="716.6400000000001"/>
    </contour>
    <contour>
      <point x="429.04" y="790.0" type="line"/>
      <point x="429.04" y="662.344" type="line"/>
      <point x="444.74" y="644.688" type="line"/>
      <point x="444.74" y="59.968" type="line"/>
      <point x="429.04" y="38.824" type="line"/>
      <point x="429.04" y="-120.0" type="line"/>
      <point x="547.94" y="-120.0" type="line"/>
      <point x="547.94" y="38.327999999999996" type="line"/>
      <point x="532.7800000000001" y="62.47200000000001" type="line"/>
      <point x="532.7800000000001" y="650.856" type="line"/>
      <point x="547.94" y="669.336" type="line"/>
      <point x="547.94" y="790.0" type="line"/>
    </contour>
  </outline>
</glyph>
<glyph name="cent.altprop" format="2">
  <advance width="724.0200000000002"/>
  <outline>
    <contour>
      <point x="459.9" y="77.952" type="curve" smooth="yes"/>
      <point x="379.193137254902" y="77.952"/>
      <point x="332.92" y="141.48000000000002"/>
      <point x="332.92" y="253.824" type="curve" smooth="yes"/>
      <point x="332.92" y="368.344"/>
      <point x="369.64282051282044" y="434.20799999999997"/>
      <point x="431.58000000000004" y="434.20799999999997" type="curve" smooth="yes"/>
      <point x="461.44" y="434.20799999999997"/>
      <point x="475.6" y="420.66400000000004"/>
      <point x="488.76000000000005" y="401.808" type="curve"/>
      <point x="519.6199999999999" y="410.496"/>
      <point x="523.1600000000001" y="456.808"/>
      <point x="473.06" y="458.13599999999997" type="curve"/>
      <point x="473.06" y="325.672" type="line"/>
      <point x="680.0" y="325.672" type="line"/>
      <point x="680.0" y="464.472" type="line"/>
      <point x="653.6800000000001" y="483.312"/>
      <point x="568.1800000000001" y="522.992"/>
      <point x="413.88" y="522.992" type="curve" smooth="yes"/>
      <point x="183.0812779552716" y="522.992"/>
      <point x="35.400000000000006" y="422.30400000000003"/>
      <point x="35.400000000000006" y="253.824" type="curve" smooth="yes"/>
      <point x="35.400000000000006" y="84.68799999999999"/>
      <point x="194.0072131147541" y="-13.328"/>
      <point x="404.2600000000001" y="-13.328" type="curve" smooth="yes"/>
      <point x="562.6399999999999" y="-13.328"/>
      <point x="643.0600000000002" y="47.495999999999995"/>
      <point x="694.1600000000001" y="133.632" type="curve"/>
      <point x="606.1199999999999" y="180.288" type="line"/>
      <point x="578.8" y="135.12"/>
      <point x="531.24" y="77.952"/>
    </contour>
    <contour>
      <point x="478.1400000000001" y="479.192" type="line"/>
      <point x="478.1400000000001" y="623.0" type="line"/>
      <point x="347.08000000000004" y="623.0" type="line"/>
      <point x="347.08000000000004" y="471.024" type="line"/>
    </contour>
    <contour>
      <point x="347.08000000000004" y="36.791999999999994" type="line"/>
      <point x="347.08000000000004" y="-126.0" type="line"/>
      <point x="478.1400000000001" y="-126.0" type="line"/>
      <point x="478.1400000000001" y="28.32" type="line"/>
    </contour>
  </outline>
</glyph>
<glyph name="cent.proportional" format="2">
  <advance width="724.0200000000002"/>
  <outline>
    <contour>
      <point x="347.08000000000004" y="623.0" type="line"/>
      <point x="347.08000000000004" y="471.024" type="line"/>
      <point x="373.4" y="455.69599999999997" type="line"/>
      <point x="373.4" y="53.455999999999996" type="line"/>
      <point x="347.08000000000004" y="36.455999999999996" type="line"/>
      <point x="347.08000000000004" y="-126.0" type="line"/>
      <point x="478.1400000000001" y="-126.0" type="line"/>
      <point x="478.1400000000001" y="27.983999999999995" type="line"/>
      <point x="451.82" y="42.648" type="line"/>
      <point x="451.82" y="462.688" type="line"/>
      <point x="478.1400000000001" y="479.192" type="line"/>
      <point x="478.1400000000001" y="623.0" type="line"/>
    </contour>
    <contour>
      <point x="448.28000000000003" y="73.45599999999999" type="curve" smooth="yes"/>
      <point x="346.08000000000004" y="73.45599999999999"/>
      <point x="292.44000000000005" y="118.7084060818612"/>
      <point x="292.44000000000005" y="253.656" type="curve" smooth="yes"/>
      <point x="292.44000000000005" y="381.6064342856647"/>
      <point x="313.68000000000006" y="438.368"/>
      <point x="427.03999999999996" y="438.368" type="curve" smooth="yes"/>
      <point x="499.38" y="438.368"/>
      <point x="523.1600000000001" y="417.33599999999996"/>
      <point x="535.3199999999999" y="400.144" type="curve"/>
      <point x="588.3123912289599" y="388.093604508475"/>
      <point x="615.4762092537801" y="434.402352192522"/>
      <point x="509.0" y="458.13599999999997" type="curve"/>
      <point x="509.0" y="325.672" type="line"/>
      <point x="680.0" y="325.672" type="line"/>
      <point x="680.0" y="456.984" type="line"/>
      <point x="651.6800000000001" y="478.32000000000005"/>
      <point x="570.7199999999999" y="522.992"/>
      <point x="407.79999999999995" y="522.992" type="curve" smooth="yes"/>
      <point x="187.70000000000002" y="522.992"/>
      <point x="35.400000000000006" y="422.30400000000003"/>
      <point x="35.400000000000006" y="253.656" type="curve" smooth="yes"/>
      <point x="35.400000000000006" y="84.35199999999999"/>
      <point x="193.78000000000003" y="-13.664000000000001"/>
      <point x="404.2600000000001" y="-13.664000000000001" type="curve" smooth="yes"/>
      <point x="562.6399999999999" y="-13.664000000000001"/>
      <point x="643.0600000000002" y="47.16"/>
      <point x="694.1600000000001" y="133.296" type="curve"/>
      <point x="606.1199999999999" y="179.952" type="line"/>
      <point x="577.9444289954799" y="132.35307933056998"/>
      <point x="529.24" y="73.45599999999999"/>
    </contour>
  </outline>
</glyph>
<glyph name="circumflex_acute" format="2">
  <advance width="606.6600000000001"/>
  <anchor x="278.2800000000001" y="558.0" name="_top"/>
  <outline>
    <contour>
      <point x="538.8599999999999" y="805.192" type="curve" smooth="yes"/>
      <point x="505.4600000000001" y="708.832" type="line"/>
      <point x="505.4600000000001" y="678.848" type="line"/>
      <point x="589.9600000000002" y="678.848" type="line"/>
      <point x="675.46" y="729.24" type="line" smooth="yes"/>
      <point x="740.7199999999999" y="760.056"/>
      <point x="770.58" y="793.536"/>
      <point x="770.58" y="834.0" type="curve" smooth="yes"/>
      <point x="770.58" y="872.6400000000001"/>
      <point x="730.1" y="902.12"/>
      <point x="669.3800000000001" y="902.12" type="curve" smooth="yes"/>
      <point x="595.5" y="902.12"/>
      <point x="562.6399999999999" y="865.984"/>
    </contour>
    <component base="circumflex" xOffset="54.260000000000026"/>
  </outline>
</glyph>
<glyph name="circumflex_grave" format="2">
  <advance width="606.12"/>
  <anchor x="291.44" y="564.0" name="_top"/>
  <outline>
    <contour>
      <point x="652.6800000000001" y="805.192" type="curve" smooth="yes"/>
      <point x="686.0799999999999" y="708.832" type="line"/>
      <point x="686.0799999999999" y="678.848" type="line"/>
      <point x="601.58" y="678.848" type="line"/>
      <point x="516.08" y="729.24" type="line" smooth="yes"/>
      <point x="450.81999999999994" y="760.056"/>
      <point x="420.96" y="793.536"/>
      <point x="420.96" y="834.0" type="curve" smooth="yes"/>
      <point x="420.96" y="872.6400000000001"/>
      <point x="461.44000000000005" y="902.12"/>
      <point x="522.1600000000001" y="902.12" type="curve" smooth="yes"/>
      <point x="595.5" y="902.12"/>
      <point x="628.9000000000001" y="865.984"/>
    </contour>
    <component base="circumflex" xOffset="58.31999999999996"/>
  </outline>
</glyph>
<glyph name="f.alt" format="2">
  <advance width="535.32"/>
  <outline>
    <contour>
      <point x="-3.552713678800501e-15" y="512.992" type="line"/>
      <point x="-3.552713678800501e-15" y="432.69599999999997" type="line"/>
      <point x="520.6200000000001" y="432.69599999999997" type="line"/>
      <point x="520.6200000000001" y="512.992" type="line"/>
    </contour>
    <contour>
      <point x="455.36" y="0.0" type="line"/>
      <point x="455.36" y="70.792" type="line"/>
      <point x="443.74" y="70.792" type="line" smooth="yes"/>
      <point x="412.34000000000003" y="70.792"/>
      <point x="374.4" y="72.96000000000002"/>
      <point x="374.4" y="79.12799999999999" type="curve" smooth="yes"/>
      <point x="374.4" y="555.024" type="line" smooth="yes"/>
      <point x="374.4" y="631.376"/>
      <point x="391.1" y="663.552"/>
      <point x="445.74" y="663.552" type="curve"/>
      <point x="474.6" y="663.552"/>
      <point x="493.29999999999995" y="652.544"/>
      <point x="499.38" y="641.3520000000001" type="curve"/>
      <point x="529.24" y="643.544"/>
      <point x="522.1600000000001" y="687.872"/>
      <point x="472.06000000000006" y="689.3679999999999" type="curve"/>
      <point x="472.06000000000006" y="579.888" type="line"/>
      <point x="666.8399999999999" y="579.888" type="line"/>
      <point x="666.8399999999999" y="714.848" type="line"/>
      <point x="620.8199999999999" y="730.5039999999999"/>
      <point x="525.7" y="747.84"/>
      <point x="417.41999999999996" y="747.84" type="curve"/>
      <point x="225.64000000000004" y="747.84"/>
      <point x="84.49999999999999" y="691.992"/>
      <point x="84.49999999999999" y="543.376" type="curve" smooth="yes"/>
      <point x="84.49999999999999" y="101.8" type="line" smooth="yes"/>
      <point x="84.49999999999999" y="80.28800000000001"/>
      <point x="66.80000000000001" y="70.792"/>
      <point x="33.400000000000006" y="70.792" type="curve" smooth="yes"/>
      <point x="19.24" y="70.792" type="line"/>
      <point x="19.24" y="0.0" type="line"/>
    </contour>
  </outline>
</glyph>
<glyph name="f_f.alt" format="2">
  <advance width="955.74"/>
  <outline>
    <contour>
      <point x="-3.552713678800501e-15" y="512.992" type="line"/>
      <point x="-3.552713678800501e-15" y="432.69599999999997" type="line"/>
      <point x="520.62" y="432.69599999999997" type="line"/>
      <point x="520.62" y="512.992" type="line"/>
    </contour>
    <contour>
      <point x="420.96" y="512.992" type="line"/>
      <point x="420.96" y="432.69599999999997" type="line"/>
      <point x="941.58" y="432.69599999999997" type="line"/>
      <point x="941.58" y="512.992" type="line"/>
    </contour>
    <contour>
      <point x="505.4600000000001" y="79.12799999999999" type="line" smooth="yes"/>
      <point x="505.4600000000001" y="72.96000000000002"/>
      <point x="485.21999999999997" y="70.792"/>
      <point x="473.06000000000006" y="70.792" type="curve" smooth="yes"/>
      <point x="468.52" y="70.792" type="line"/>
      <point x="468.52" y="0.0" type="line"/>
      <point x="876.3199999999999" y="0.0" type="line"/>
      <point x="876.3199999999999" y="70.792" type="line"/>
      <point x="864.1600000000001" y="70.792" type="line" smooth="yes"/>
      <point x="833.3" y="70.792"/>
      <point x="795.3600000000001" y="72.96000000000002"/>
      <point x="795.3600000000001" y="79.12799999999999" type="curve" smooth="yes"/>
      <point x="795.3600000000001" y="555.024" type="line" smooth="yes"/>
      <point x="795.3600000000001" y="631.376"/>
      <point x="812.0600000000001" y="663.552"/>
      <point x="866.7" y="663.552" type="curve" smooth="yes"/>
      <point x="895.5600000000001" y="663.552"/>
      <point x="914.26" y="652.544"/>
      <point x="920.3399999999999" y="641.3520000000001" type="curve"/>
      <point x="950.2" y="643.544"/>
      <point x="943.1200000000002" y="687.872"/>
      <point x="893.02" y="689.3679999999999" type="curve"/>
      <point x="893.02" y="579.888" type="line"/>
      <point x="1087.8" y="579.888" type="line"/>
      <point x="1087.8" y="714.848" type="line"/>
      <point x="1041.7800000000002" y="730.5039999999999"/>
      <point x="946.6600000000001" y="747.84"/>
      <point x="838.3800000000001" y="747.84" type="curve" smooth="yes"/>
      <point x="646.6" y="747.84"/>
      <point x="505.4600000000001" y="691.992"/>
      <point x="505.4600000000001" y="543.376" type="curve" smooth="yes"/>
    </contour>
    <contour>
      <point x="374.4" y="79.12799999999999" type="curve" smooth="yes"/>
      <point x="374.4" y="543.344" type="line" smooth="yes"/>
      <point x="374.4" y="619.696"/>
      <point x="391.1" y="651.872"/>
      <point x="458.90000000000003" y="651.872" type="curve" smooth="yes"/>
      <point x="507.46" y="651.872"/>
      <point x="529.24" y="634.032"/>
      <point x="535.3199999999999" y="602.84" type="curve"/>
      <point x="535.3199999999999" y="652.488"/>
      <point x="555.02" y="676.024"/>
      <point x="505.4600000000001" y="674.16" type="curve"/>
      <point x="505.4600000000001" y="543.168" type="line"/>
      <point x="649.1399999999999" y="576.528" type="line"/>
      <point x="672.9200000000001" y="697.7919999999999" type="line"/>
      <point x="642.0600000000002" y="716.304"/>
      <point x="555.02" y="736.16"/>
      <point x="431.58000000000004" y="736.16" type="curve" smooth="yes"/>
      <point x="235.26" y="736.16"/>
      <point x="84.49999999999999" y="680.312"/>
      <point x="84.49999999999999" y="531.696" type="curve" smooth="yes"/>
      <point x="84.49999999999999" y="101.8" type="line"/>
      <point x="84.49999999999999" y="80.28800000000001"/>
      <point x="66.80000000000001" y="70.792"/>
      <point x="33.400000000000006" y="70.792" type="curve" smooth="yes"/>
      <point x="19.24" y="70.792" type="line"/>
      <point x="19.24" y="0.0" type="line"/>
      <point x="418.41999999999996" y="0.0" type="line"/>
      <point x="418.41999999999996" y="70.792" type="line"/>
      <point x="414.88000000000005" y="70.792" type="line" smooth="yes"/>
      <point x="388.56000000000006" y="70.792"/>
      <point x="374.4" y="72.96000000000002"/>
    </contour>
  </outline>
</glyph>
<glyph name="f_f_l.alt" format="2">
  <advance width="1271.96"/>
  <outline>
    <contour>
      <point x="-3.552713678800501e-15" y="512.992" type="line"/>
      <point x="-3.552713678800501e-15" y="432.69599999999997" type="line"/>
      <point x="492.3" y="432.69599999999997" type="line"/>
      <point x="492.3" y="512.992" type="line"/>
    </contour>
    <contour>
      <point x="420.96" y="512.992" type="line"/>
      <point x="420.96" y="432.69599999999997" type="line"/>
      <point x="878.8600000000001" y="432.69599999999997" type="line"/>
      <point x="878.8600000000001" y="512.992" type="line"/>
    </contour>
    <contour>
      <point x="851.54" y="0.0" type="line"/>
      <point x="851.54" y="70.792" type="line"/>
      <point x="842.9200000000001" y="70.792" type="line" smooth="yes"/>
      <point x="816.5999999999999" y="70.792"/>
      <point x="795.3600000000001" y="72.96000000000002"/>
      <point x="795.3600000000001" y="79.12799999999999" type="curve" smooth="yes"/>
      <point x="795.3600000000001" y="574.3280000000001" type="line" smooth="yes"/>
      <point x="795.3600000000001" y="637.2239999999999"/>
      <point x="820.6800000000001" y="660.2239999999999"/>
      <point x="871.78" y="660.2239999999999" type="curve" smooth="yes"/>
      <point x="923.8800000000001" y="660.2239999999999"/>
      <point x="958.2800000000001" y="634.904"/>
      <point x="981.0600000000002" y="573.912" type="curve"/>
      <point x="1106.04" y="694.84" type="line"/>
      <point x="1046.3200000000002" y="722.68"/>
      <point x="966.9000000000001" y="747.84"/>
      <point x="840.3800000000001" y="747.84" type="curve" smooth="yes"/>
      <point x="661.3" y="747.84"/>
      <point x="505.4600000000001" y="695.856"/>
      <point x="505.4600000000001" y="543.544" type="curve"/>
      <point x="505.4600000000001" y="79.12799999999999" type="line" smooth="yes"/>
      <point x="505.4600000000001" y="72.96000000000002"/>
      <point x="492.29999999999995" y="70.792"/>
      <point x="469.52" y="70.792" type="curve" smooth="yes"/>
      <point x="468.52" y="70.792" type="line"/>
      <point x="468.52" y="0.0" type="line"/>
    </contour>
    <contour>
      <point x="1257.8" y="0.0" type="line"/>
      <point x="1257.8" y="70.792" type="line"/>
      <point x="1256.8000000000002" y="70.792" type="line" smooth="yes"/>
      <point x="1235.56" y="70.792"/>
      <point x="1217.3200000000002" y="76.96000000000001"/>
      <point x="1217.3200000000002" y="98.47200000000001" type="curve" smooth="yes"/>
      <point x="1217.3200000000002" y="730.84" type="line"/>
      <point x="893.02" y="730.84" type="line"/>
      <point x="926.4200000000002" y="700.992" type="line"/>
      <point x="926.4200000000002" y="79.12799999999999" type="line" smooth="yes"/>
      <point x="926.4200000000002" y="72.96000000000002"/>
      <point x="906.1800000000001" y="70.792"/>
      <point x="894.0200000000001" y="70.792" type="curve" smooth="yes"/>
      <point x="889.48" y="70.792" type="line"/>
      <point x="889.48" y="0.0" type="line"/>
    </contour>
    <contour>
      <point x="374.4" y="79.12799999999999" type="curve" smooth="yes"/>
      <point x="374.4" y="543.344" type="line" smooth="yes"/>
      <point x="374.4" y="619.696"/>
      <point x="391.1" y="651.872"/>
      <point x="458.90000000000003" y="651.872" type="curve" smooth="yes"/>
      <point x="507.46" y="651.872"/>
      <point x="529.24" y="634.032"/>
      <point x="535.3199999999999" y="602.84" type="curve"/>
      <point x="564.6399999999999" y="625.032"/>
      <point x="555.02" y="676.024"/>
      <point x="505.4600000000001" y="674.16" type="curve"/>
      <point x="505.4600000000001" y="543.168" type="line"/>
      <point x="649.1399999999999" y="576.528" type="line"/>
      <point x="672.9200000000001" y="697.7919999999999" type="line"/>
      <point x="642.0600000000002" y="716.304"/>
      <point x="555.02" y="736.16"/>
      <point x="431.58000000000004" y="736.16" type="curve" smooth="yes"/>
      <point x="235.26" y="736.16"/>
      <point x="84.49999999999999" y="680.312"/>
      <point x="84.49999999999999" y="531.696" type="curve" smooth="yes"/>
      <point x="84.49999999999999" y="101.8" type="line"/>
      <point x="84.49999999999999" y="80.28800000000001"/>
      <point x="66.80000000000001" y="70.792"/>
      <point x="33.400000000000006" y="70.792" type="curve" smooth="yes"/>
      <point x="19.24" y="70.792" type="line"/>
      <point x="19.24" y="0.0" type="line"/>
      <point x="418.41999999999996" y="0.0" type="line"/>
      <point x="418.41999999999996" y="70.792" type="line"/>
      <point x="414.88000000000005" y="70.792" type="line" smooth="yes"/>
      <point x="388.56000000000006" y="70.792"/>
      <point x="374.4" y="72.96000000000002"/>
    </contour>
  </outline>
</glyph>
<glyph name="five.lin" format="2">
  <advance width="665.8399999999999"/>
  <outline>
    <contour>
      <point x="318.76" y="-10.168000000000001" type="curve" smooth="yes"/>
      <point x="146.21999999999997" y="-10.168000000000001"/>
      <point x="53.639999999999986" y="60.327999999999996"/>
      <point x="9.619999999999997" y="151.30400000000003" type="curve"/>
      <point x="122.44" y="206.28" type="line"/>
      <point x="148.76" y="153.112"/>
      <point x="196.32000000000002" y="84.776"/>
      <point x="274.74" y="84.776" type="curve" smooth="yes"/>
      <point x="346.08000000000004" y="84.776"/>
      <point x="379.48" y="143.472"/>
      <point x="379.48" y="241.16799999999998" type="curve" smooth="yes"/>
      <point x="379.48" y="327.53599999999994"/>
      <point x="348.61999999999995" y="379.544"/>
      <point x="284.36000000000007" y="379.544" type="curve" smooth="yes"/>
      <point x="231.72" y="379.544"/>
      <point x="204.4" y="353.216"/>
      <point x="185.7" y="308.55199999999996" type="curve"/>
      <point x="72.34" y="308.55199999999996" type="line"/>
      <point x="72.34" y="710.0" type="line"/>
      <point x="583.88" y="710.0" type="line"/>
      <point x="566.1800000000001" y="563.944" type="line"/>
      <point x="165.45999999999998" y="563.944" type="line"/>
      <point x="196.32000000000002" y="690.0" type="line"/>
      <point x="196.32000000000002" y="377.0" type="line"/>
      <point x="190.24" y="363.672"/>
      <point x="174.54000000000002" y="359.0"/>
      <point x="162.92000000000002" y="370.18399999999997" type="curve"/>
      <point x="204.4" y="425.016"/>
      <point x="261.58" y="467.0"/>
      <point x="384.02" y="467.0" type="curve" smooth="yes"/>
      <point x="550.48" y="467.0"/>
      <point x="644.5999999999999" y="369.16"/>
      <point x="644.5999999999999" y="240.336" type="curve" smooth="yes"/>
      <point x="644.5999999999999" y="88.34400000000001"/>
      <point x="519.6199999999999" y="-10.168000000000001"/>
    </contour>
  </outline>
</glyph>
<glyph name="franc.proportional" format="2">
  <advance width="737.1800000000001"/>
  <outline>
    <contour>
      <point x="387.56" y="421.96799999999996" type="line"/>
      <point x="387.56" y="347.504" type="line"/>
      <point x="606.12" y="334.512" type="line"/>
      <point x="606.12" y="434.96000000000004" type="line"/>
    </contour>
    <contour>
      <point x="419.96" y="623.88" type="line"/>
      <point x="469.52" y="623.88" type="line" smooth="yes"/>
      <point x="527.7" y="623.88"/>
      <point x="569.72" y="616.88"/>
      <point x="573.2600000000001" y="580.88" type="curve" smooth="yes"/>
      <point x="580.3399999999999" y="504.2" type="line"/>
      <point x="706.3199999999999" y="504.2" type="line"/>
      <point x="706.3199999999999" y="710.0" type="line"/>
      <point x="59.72" y="710.0" type="line"/>
      <point x="59.72" y="633.88" type="line"/>
      <point x="71.34" y="633.88" type="line" smooth="yes"/>
      <point x="101.2" y="633.88"/>
      <point x="122.44000000000001" y="626.88"/>
      <point x="122.44000000000001" y="597.88" type="curve" smooth="yes"/>
      <point x="122.44000000000001" y="112.11999999999999" type="line" smooth="yes"/>
      <point x="122.44000000000001" y="83.11999999999999"/>
      <point x="101.2" y="76.11999999999999"/>
      <point x="71.34" y="76.11999999999999" type="curve" smooth="yes"/>
      <point x="59.72" y="76.11999999999999" type="line"/>
      <point x="59.72" y="0.0" type="line"/>
      <point x="506.46000000000015" y="0.0" type="line"/>
      <point x="506.46000000000015" y="76.11999999999999" type="line"/>
      <point x="486.21999999999997" y="76.11999999999999" type="line" smooth="yes"/>
      <point x="456.36" y="76.11999999999999"/>
      <point x="419.96" y="77.11999999999999"/>
      <point x="419.96" y="112.11999999999999" type="curve" smooth="yes"/>
    </contour>
    <contour>
      <point x="59.72" y="252.464" type="line"/>
      <point x="59.72" y="173.83999999999997" type="line"/>
      <point x="540.86" y="173.83999999999997" type="line"/>
      <point x="540.86" y="252.464" type="line"/>
    </contour>
  </outline>
</glyph>
<glyph name="naira.proportional" format="2">
  <advance width="856.0800000000002"/>
  <outline>
    <contour>
      <point x="26.319999999999997" y="0.0" type="line"/>
      <point x="281.81999999999994" y="0.0" type="line"/>
      <point x="281.81999999999994" y="76.11999999999999" type="line"/>
      <point x="267.65999999999997" y="76.11999999999999" type="line" smooth="yes"/>
      <point x="236.79999999999998" y="76.11999999999999"/>
      <point x="206.94000000000005" y="84.11999999999999"/>
      <point x="206.94000000000005" y="91.11999999999999" type="curve" smooth="yes"/>
      <point x="206.94000000000005" y="677.696" type="line"/>
      <point x="169.0" y="674.3679999999999" type="line"/>
      <point x="445.74000000000007" y="0.0" type="line"/>
      <point x="767.04" y="0.0" type="line"/>
      <point x="767.04" y="597.0400000000001" type="line" smooth="yes"/>
      <point x="767.04" y="626.0400000000001"/>
      <point x="788.28" y="633.88"/>
      <point x="818.1399999999999" y="633.88" type="curve" smooth="yes"/>
      <point x="829.76" y="633.88" type="line"/>
      <point x="829.76" y="710.0" type="line"/>
      <point x="574.26" y="710.0" type="line"/>
      <point x="574.26" y="633.88" type="line"/>
      <point x="588.42" y="633.88" type="line" smooth="yes"/>
      <point x="618.28" y="633.88"/>
      <point x="649.1399999999999" y="625.88"/>
      <point x="649.1399999999999" y="618.88" type="curve" smooth="yes"/>
      <point x="649.1399999999999" y="80.76" type="line"/>
      <point x="678.0" y="79.568" type="line"/>
      <point x="456.3599999999999" y="710.0" type="line"/>
      <point x="26.319999999999997" y="710.0" type="line"/>
      <point x="26.319999999999997" y="633.88" type="line"/>
      <point x="37.940000000000005" y="633.88" type="line" smooth="yes"/>
      <point x="67.8" y="633.88"/>
      <point x="89.04000000000002" y="626.88"/>
      <point x="89.04000000000002" y="597.88" type="curve" smooth="yes"/>
      <point x="89.04000000000002" y="117.11999999999999" type="line" smooth="yes"/>
      <point x="89.04000000000002" y="88.11999999999999"/>
      <point x="67.8" y="76.11999999999999"/>
      <point x="37.940000000000005" y="76.11999999999999" type="curve" smooth="yes"/>
      <point x="26.319999999999997" y="76.11999999999999" type="line"/>
    </contour>
    <contour>
      <point x="26.320000000000004" y="486.44" type="line"/>
      <point x="26.320000000000004" y="406.984" type="line"/>
      <point x="160.38" y="406.984" type="line"/>
      <point x="160.38" y="486.44" type="line"/>
    </contour>
    <contour>
      <point x="377.93999999999994" y="415.30400000000003" type="line"/>
      <point x="687.08" y="415.30400000000003" type="line"/>
      <point x="716.9399999999998" y="406.984" type="line"/>
      <point x="829.76" y="406.984" type="line"/>
      <point x="829.76" y="486.44" type="line"/>
      <point x="366.31999999999994" y="486.44" type="line"/>
    </contour>
    <contour>
      <point x="716.9399999999999" y="244.496" type="line"/>
      <point x="829.76" y="244.496" type="line"/>
      <point x="829.76" y="323.952" type="line"/>
      <point x="716.9399999999998" y="323.952" type="line"/>
    </contour>
    <contour>
      <point x="26.320000000000004" y="323.952" type="line"/>
      <point x="26.320000000000004" y="244.496" type="line"/>
      <point x="480.14" y="244.496" type="line"/>
      <point x="474.6" y="315.632" type="line"/>
      <point x="158.38" y="315.632" type="line"/>
      <point x="126.98000000000002" y="323.952" type="line"/>
    </contour>
  </outline>
</glyph>
<glyph name="nine.lin" format="2">
  <advance width="665.8399999999999"/>
  <outline>
    <contour>
      <point x="78.42" y="70.792" type="line"/>
      <point x="260.58000000000004" y="88.96704222032297"/>
      <point x="380.4800000000001" y="199.632"/>
      <point x="380.4800000000001" y="433.944" type="curve" smooth="yes"/>
      <point x="380.4800000000001" y="591.832"/>
      <point x="366.31999999999994" y="635.0400000000001"/>
      <point x="335.4600000000001" y="635.0400000000001" type="curve" smooth="yes"/>
      <point x="302.05999999999995" y="635.0400000000001"/>
      <point x="288.9" y="591.512"/>
      <point x="288.9" y="494.504" type="curve" smooth="yes"/>
      <point x="288.9" y="412.16"/>
      <point x="294.98" y="363.128"/>
      <point x="340.0" y="363.128" type="curve" smooth="yes"/>
      <point x="372.4" y="363.128"/>
      <point x="398.18" y="398.832"/>
      <point x="423.5" y="448.728" type="curve"/>
      <point x="429.0399999999999" y="377.592" type="line"/>
      <point x="410.34" y="329.704"/>
      <point x="364.78000000000003" y="278.168"/>
      <point x="259.0400000000001" y="278.168" type="curve" smooth="yes"/>
      <point x="116.35999999999999" y="278.168"/>
      <point x="17.700000000000003" y="351.192"/>
      <point x="17.700000000000003" y="488.67999999999995" type="curve" smooth="yes"/>
      <point x="17.700000000000003" y="631.664"/>
      <point x="141.68" y="720.0"/>
      <point x="328.38000000000005" y="720.0" type="curve" smooth="yes"/>
      <point x="533.78" y="720.0"/>
      <point x="648.1399999999999" y="628.32"/>
      <point x="648.1399999999999" y="424.79200000000003" type="curve" smooth="yes"/>
      <point x="648.1399999999999" y="180.8"/>
      <point x="424.5" y="10.495687108270463"/>
      <point x="95.12" y="-14.168000000000001" type="curve"/>
    </contour>
  </outline>
</glyph>
<glyph name="seven.den" format="2">
  <advance width="436.6600000000001"/>
  <outline>
    <contour>
      <point x="166.45999999999998" y="273.18399999999997" type="line" smooth="yes"/>
      <point x="124.97999999999999" y="273.18399999999997"/>
      <point x="109.27999999999997" y="269.18399999999997"/>
      <point x="107.28" y="246.68800000000002" type="curve" smooth="yes"/>
      <point x="102.2" y="203.84799999999998" type="line"/>
      <point x="39.480000000000004" y="203.84799999999998" type="line"/>
      <point x="39.480000000000004" y="371.784" type="line"/>
      <point x="412.34000000000003" y="371.784" type="line"/>
      <point x="412.34000000000003" y="283.672" type="line"/>
      <point x="337.46000000000004" y="198.83999999999997"/>
      <point x="299.5199999999999" y="142.98399999999998"/>
      <point x="298.52" y="0.0" type="curve"/>
      <point x="119.9" y="0.0" type="line"/>
      <point x="132.06" y="132.328"/>
      <point x="286.36" y="243.69600000000003"/>
      <point x="359.24" y="297.66400000000004" type="curve"/>
      <point x="380.48" y="273.18399999999997" type="line"/>
    </contour>
  </outline>
</glyph>
<glyph name="uni20B8.proportional" format="2">
  <advance width="785.2800000000001"/>
  <outline>
    <contour>
      <point x="259.04" y="112.11999999999999" type="line" smooth="yes"/>
      <point x="259.04" y="83.11999999999999"/>
      <point x="238.8" y="76.11999999999999"/>
      <point x="209.48000000000002" y="76.11999999999999" type="curve" smooth="yes"/>
      <point x="192.78000000000003" y="76.11999999999999" type="line"/>
      <point x="192.78000000000003" y="0.0" type="line"/>
      <point x="590.96" y="0.0" type="line"/>
      <point x="590.96" y="76.11999999999999" type="line"/>
      <point x="574.26" y="76.11999999999999" type="line" smooth="yes"/>
      <point x="544.4" y="76.11999999999999"/>
      <point x="524.1600000000001" y="83.11999999999999"/>
      <point x="524.1600000000001" y="112.11999999999999" type="curve" smooth="yes"/>
      <point x="524.1600000000001" y="465.76" type="line"/>
      <point x="536.3199999999999" y="465.76" type="line" smooth="yes"/>
      <point x="590.96" y="465.76"/>
      <point x="630.4399999999999" y="457.096"/>
      <point x="632.4399999999998" y="418.6" type="curve" smooth="yes"/>
      <point x="639.52" y="318.936" type="line"/>
      <point x="751.3399999999999" y="318.936" type="line"/>
      <point x="751.3399999999999" y="552.2080000000001" type="line"/>
      <point x="31.860000000000003" y="552.2080000000001" type="line"/>
      <point x="31.860000000000003" y="318.936" type="line"/>
      <point x="143.67999999999998" y="318.936" type="line"/>
      <point x="150.76" y="418.6" type="line" smooth="yes"/>
      <point x="153.3" y="457.096"/>
      <point x="192.77999999999997" y="465.76"/>
      <point x="247.42000000000002" y="465.76" type="curve" smooth="yes"/>
      <point x="259.04" y="465.76" type="line"/>
    </contour>
    <contour>
      <point x="31.860000000000003" y="710.0" type="line"/>
      <point x="31.860000000000003" y="623.888" type="line"/>
      <point x="751.3399999999999" y="623.888" type="line"/>
      <point x="751.3399999999999" y="710.0" type="line"/>
    </contour>
  </outline>
</glyph>
<glyph name="zero.slashold" format="2">
  <advance width="665.8399999999999"/>
  <outline>
    <contour>
      <point x="196.32" y="103.0" type="line"/>
      <point x="471.0600000000001" y="348.232" type="line"/>
      <point x="471.06000000000006" y="443.0" type="line"/>
      <point x="196.32000000000002" y="197.264" type="line"/>
    </contour>
    <contour>
      <point x="345.08000000000004" y="77.61600000000001" type="curve" smooth="yes"/>
      <point x="288.96285714358004" y="77.61600000000001"/>
      <point x="274.74" y="118.36"/>
      <point x="274.74" y="273.0" type="curve" smooth="yes"/>
      <point x="274.74" y="428.30400000000003"/>
      <point x="286.43897435854" y="469.384"/>
      <point x="332.91999999999996" y="469.384" type="curve" smooth="yes"/>
      <point x="379.40102564145997" y="469.384"/>
      <point x="391.1" y="428.30400000000003"/>
      <point x="391.1" y="273.0" type="curve" smooth="yes"/>
      <point x="391.1" y="118.192"/>
      <point x="381.37379310381993" y="77.61600000000001"/>
    </contour>
    <contour>
      <point x="332.91999999999996" y="-11.168000000000001" type="curve" smooth="yes"/>
      <point x="519.62" y="-11.168000000000001"/>
      <point x="652.6800000000001" y="97.34400000000001"/>
      <point x="652.6800000000001" y="273.0" type="curve" smooth="yes"/>
      <point x="652.6800000000001" y="449.488"/>
      <point x="519.62" y="558.0"/>
      <point x="332.91999999999996" y="558.0" type="curve" smooth="yes"/>
      <point x="146.22000000000003" y="558.0"/>
      <point x="13.159999999999993" y="449.488"/>
      <point x="13.159999999999993" y="273.0" type="curve" smooth="yes"/>
      <point x="13.159999999999993" y="97.34400000000001"/>
      <point x="146.22000000000003" y="-11.168000000000001"/>
    </contour>
  </outline>
</glyph>
